<?xml version="1.0" encoding="UTF-8"?>
<!DOCTYPE svg PUBLIC "-//W3C//DTD SVG 1.1//EN" "http://www.w3.org/Graphics/SVG/1.1/DTD/svg11.dtd">
<!-- Creator: CorelDRAW X7 -->
<svg xmlns="http://www.w3.org/2000/svg" xml:space="preserve" width="917px" height="516px" version="1.1" style="shape-rendering:geometricPrecision; text-rendering:geometricPrecision; image-rendering:optimizeQuality; fill-rule:evenodd; clip-rule:evenodd"
viewBox="0 0 917 516"
 xmlns:xlink="http://www.w3.org/1999/xlink">
 <defs>
  <style type="text/css">
   <![CDATA[
    .str0 {stroke:#C8CDCF;stroke-width:2.32296}
    .fil27 {fill:none;fill-rule:nonzero}
    .fil24 {fill:#00A7D7;fill-rule:nonzero}
    .fil15 {fill:#1D1D8D;fill-rule:nonzero}
    .fil18 {fill:#214694;fill-rule:nonzero}
    .fil13 {fill:#2D2DA4;fill-rule:nonzero}
    .fil23 {fill:#33304A;fill-rule:nonzero}
    .fil14 {fill:#403EAF;fill-rule:nonzero}
    .fil2 {fill:#4869E7;fill-rule:nonzero}
    .fil16 {fill:#4B4BBB;fill-rule:nonzero}
    .fil3 {fill:#7894F3;fill-rule:nonzero}
    .fil21 {fill:#8FAEF7;fill-rule:nonzero}
    .fil5 {fill:#93A5FA;fill-rule:nonzero}
    .fil22 {fill:#A06069;fill-rule:nonzero}
    .fil4 {fill:#BCCCFF;fill-rule:nonzero}
    .fil28 {fill:#C8CDCF;fill-rule:nonzero}
    .fil19 {fill:#D6DBFF;fill-rule:nonzero}
    .fil9 {fill:#E5983D;fill-rule:nonzero}
    .fil7 {fill:#EAF0FF;fill-rule:nonzero}
    .fil10 {fill:#EDA957;fill-rule:nonzero}
    .fil20 {fill:#F8AAB7;fill-rule:nonzero}
    .fil11 {fill:#F9BE6B;fill-rule:nonzero}
    .fil17 {fill:#FEC6B6;fill-rule:nonzero}
    .fil8 {fill:#FF7381;fill-rule:nonzero}
    .fil12 {fill:#FFCE8A;fill-rule:nonzero}
    .fil6 {fill:white;fill-rule:nonzero}
    .fil26 {fill:white;fill-rule:nonzero;fill-opacity:0.400000}
    .fil0 {fill:#DFE2F0;fill-rule:nonzero;fill-opacity:0.501961}
    .fil1 {fill:#DFE2F0;fill-rule:nonzero;fill-opacity:0.600000}
    .fil25 {fill:url(#id2);fill-rule:nonzero}
   ]]>
  </style>
     <mask id="id0">
  <linearGradient id="id1" gradientUnits="userSpaceOnUse" x1="583.691" y1="261.978" x2="694.118" y2="261.978">
   <stop offset="0" style="stop-opacity:0; stop-color:white"/>
   <stop offset="0" style="stop-opacity:0; stop-color:white"/>
   <stop offset="1" style="stop-opacity:0.498039; stop-color:white"/>
  </linearGradient>
      <rect style="fill:url(#id1)" x="583" y="170" width="111" height="184"/>
     </mask>
  <linearGradient id="id2" gradientUnits="userSpaceOnUse" x1="583.691" y1="261.978" x2="694.118" y2="261.978">
   <stop offset="0" style="stop-opacity:1; stop-color:#93A5FA"/>
   <stop offset="0" style="stop-opacity:1; stop-color:#93A5FA"/>
   <stop offset="1" style="stop-opacity:1; stop-color:#7894F3"/>
  </linearGradient>
 </defs>
 <g id="Layer_x0020_1">
  <metadata id="CorelCorpID_0Corel-Layer"/>
  <g id="_2571791786096">
   <g>
    <path class="fil0" d="M343 451c17,7 17,19 0,27 -16,7 -44,7 -60,0 -17,-8 -17,-20 -1,-27 17,-8 44,-8 61,0z"/>
   </g>
   <g>
    <path class="fil1" d="M274 351c17,8 17,20 0,27 -17,8 -44,8 -61,0 -17,-7 -17,-19 0,-27 17,-7 44,-7 61,0z"/>
   </g>
   <g>
    <path class="fil1" d="M251 293c29,13 30,35 1,48 -30,13 -77,13 -106,0 -29,-13 -30,-35 -1,-48 30,-13 77,-13 106,0z"/>
   </g>
   <path class="fil1" d="M575 365c-7,-3 -14,-5 -22,-6l24 -14 0 -12 0 0 0 12c0,0 3,-1 9,-6 16,-13 12,-48 -5,-55l-4 -1 0 12 0 0 0 -12 -12 7 0 0 12 -7 -194 -112 -150 87 0 0 0 0 0 0 0 0 0 13 17 9 0 19 -17 9 0 0 0 1 0 0 0 0 0 12 194 111 63 -36c2,1 4,2 7,4 22,9 56,9 78,0 21,-10 21,-25 0,-35z"/>
   <g>
    <path class="fil2" d="M691 306c29,13 29,34 0,47 -29,13 -77,13 -106,0 -29,-13 -29,-34 0,-47 29,-13 76,-13 106,0z"/>
   </g>
   <g>
    <g>
     <polygon class="fil3" points="543,318 553,311 553,291 391,230 272,299 425,387 "/>
     <polygon class="fil4" points="425,396 272,308 272,298 425,386 "/>
     <polygon class="fil4" points="272,259 425,347 543,278 391,190 "/>
     <path class="fil5" d="M546 279l-3 -1 0 10c9,3 12,20 4,27l-4 3 0 9c0,0 2,-1 7,-5 13,-10 9,-38 -4,-43z"/>
     <g>
      <polygon class="fil6" points="313,255 432,324 510,278 391,209 "/>
     </g>
     <polygon class="fil6" points="542,284 521,298 423,354 286,274 286,301 423,380 542,312 "/>
     <polygon class="fil7" points="425,380 542,312 542,284 521,298 425,353 "/>
    </g>
    <polygon class="fil5" points="543,327 425,396 425,386 543,318 "/>
    <polygon class="fil5" points="543,288 425,356 425,347 543,278 "/>
    <polygon class="fil7" points="425,356 272,269 272,259 425,347 "/>
    <polygon class="fil8" points="449,350 449,381 457,368 464,372 463,343 "/>
   </g>
   <g>
    <g>
     <polygon class="fil9" points="293,255 284,249 284,231 429,177 534,238 398,316 "/>
     <polygon class="fil10" points="398,325 534,246 534,237 398,316 "/>
     <polygon class="fil11" points="534,202 398,281 293,220 428,141 "/>
     <path class="fil12" d="M290 221l3 -1 0 9c-8,2 -11,17 -3,24l3 2 0 9c0,0 -2,-1 -7,-5 -11,-9 -8,-34 4,-38z"/>
     <polygon class="fil6" points="293,225 312,237 399,287 522,216 522,240 399,311 293,250 "/>
     <polygon class="fil7" points="398,310 293,250 293,225 312,237 398,286 "/>
    </g>
    <polygon class="fil12" points="293,264 398,325 398,316 293,255 "/>
    <polygon class="fil12" points="293,229 398,290 398,281 293,220 "/>
    <polygon class="fil10" points="398,290 534,211 534,202 398,281 "/>
   </g>
   <path class="fil10" d="M479 212c0,17 -32,32 -71,32 -40,0 -72,-15 -72,-32 0,-18 32,-33 72,-33 39,0 71,15 71,33z"/>
   <path class="fil10" d="M348 221c0,6 -10,10 -23,10 -12,0 -23,-4 -23,-10 0,-6 11,-10 23,-10 13,0 23,4 23,10z"/>
   <path class="fil10" d="M517 205c0,6 -11,11 -23,11 -13,0 -23,-5 -23,-11 0,-5 10,-10 23,-10 12,0 23,5 23,10z"/>
   <g>
    <polygon class="fil13" points="523,122 523,127 408,193 294,127 294,122 "/>
    <path class="fil14" d="M345 140l0 60c0,21 28,38 64,38 36,0 64,-17 64,-38l0 -60 -128 0z"/>
    <path class="fil15" d="M346 157c-2,0 17,27 49,44 19,11 54,13 74,13 3,-4 4,-9 4,-14l0 -45 -84 -14c0,0 -41,15 -43,16z"/>
    <polygon class="fil13" points="294,127 408,61 523,127 408,193 "/>
    <polygon class="fil14" points="294,122 408,56 523,122 408,188 "/>
    <polygon class="fil16" points="408,193 408,188 294,122 294,127 "/>
    <g>
     <path class="fil11" d="M460 217l5 0c3,0 5,-3 5,-5l-3 -13c0,-2 -2,-4 -4,-4 -3,0 -5,2 -5,4l-2 13c-1,2 2,5 4,5z"/>
     <g>
      <polygon class="fil11" points="462,217 464,217 464,148 401,110 400,112 462,149 "/>
     </g>
     <path class="fil11" d="M468 186c0,3 -2,6 -5,6 -3,0 -6,-3 -6,-6 0,-3 3,-5 6,-5 3,0 5,2 5,5z"/>
    </g>
   </g>
   <g>
    <g>
     <path class="fil15" d="M501 374c0,0 -1,-1 -1,-2l-21 -147c0,-1 1,-2 2,-2 1,0 1,1 2,2l20 147c0,1 0,2 -1,2 0,0 -1,0 -1,0z"/>
    </g>
    <g>
     <path class="fil15" d="M538 359c-1,0 -1,-1 -1,-2l-21 -147c0,-1 1,-2 1,-2 1,0 2,1 2,2l21 147c0,1 -1,2 -2,2 0,0 0,0 0,0z"/>
    </g>
    <g>
     <path class="fil15" d="M486 256c-1,0 -1,-1 -2,-1 0,-1 0,-3 1,-3l35 -21c1,0 2,0 2,1 1,1 0,3 0,3l-36 21c0,0 0,0 0,0z"/>
    </g>
    <g>
     <path class="fil15" d="M489 282c-1,0 -1,-1 -1,-1 -1,-1 -1,-2 0,-3l35 -21c1,0 2,0 3,2 0,1 0,2 -1,2l-35 21c0,0 -1,0 -1,0z"/>
    </g>
    <g>
     <path class="fil15" d="M492 308c0,0 -1,0 -1,-1 -1,-1 0,-2 0,-3l36 -20c0,-1 1,0 2,1 0,1 0,2 -1,2l-35 21c0,0 0,0 -1,0z"/>
    </g>
    <g>
     <path class="fil15" d="M496 334c-1,0 -1,0 -2,-1 0,-1 0,-2 1,-3l35 -20c1,-1 2,0 2,1 1,1 1,2 0,2l-35 21c-1,0 -1,0 -1,0z"/>
    </g>
    <g>
     <path class="fil15" d="M499 360c0,0 -1,0 -1,-1 -1,-1 -1,-2 0,-3l35 -20c1,-1 2,0 3,1 0,1 0,2 -1,2l-35 21c0,0 -1,0 -1,0z"/>
    </g>
    <g>
     <path class="fil17" d="M516 235c1,2 3,2 4,2 2,-1 3,-2 2,-4 -1,-2 -2,-2 -4,-2 -1,1 -2,2 -2,4z"/>
     <path class="fil17" d="M521 235c0,0 8,18 9,21 0,2 -4,6 -6,4 -1,-2 -6,-24 -6,-24l3 -1z"/>
     <path class="fil15" d="M537 266c-3,-4 -6,-9 -8,-14 0,-1 -1,-1 -1,-2 -1,0 -1,0 -2,1 -2,0 -4,2 -4,4 0,0 0,1 1,2 3,9 8,18 13,26 1,1 2,3 3,3 2,0 3,-1 4,-3 2,-2 4,-7 3,-9 -2,-3 -7,-5 -9,-8z"/>
     <path class="fil17" d="M495 246c1,1 2,2 4,2 2,-1 2,-3 2,-4 -1,-2 -2,-3 -4,-2 -2,0 -2,2 -2,4z"/>
     <g>
      <path class="fil11" d="M550 376c-2,0 -5,-1 -5,-3l-9 -28c0,-1 0,-1 0,-1l-4 -37c-1,-3 1,-6 4,-6 3,-1 6,2 6,4l5 37 8 28c1,2 -1,5 -4,6 0,0 -1,0 -1,0z"/>
     </g>
     <path class="fil17" d="M528 261c-3,4 -1,10 3,12 4,3 10,2 13,-2 3,-4 1,-10 -3,-13 -4,-3 -10,-2 -13,3z"/>
     <g>
      <path class="fil11" d="M513 351c-2,0 -4,-1 -5,-4l-6 -23c0,-2 1,-5 3,-6l21 -11c2,-2 6,-1 7,2 2,2 1,6 -2,7l-17 9 4 20c1,3 -1,5 -3,6 -1,0 -1,0 -2,0z"/>
     </g>
     <path class="fil14" d="M517 349c0,0 -1,4 -1,4 0,1 -1,2 -4,1 -2,0 -9,-3 -10,-4 -1,-1 3,-1 5,0 2,0 7,-1 7,-1l3 0z"/>
     <path class="fil14" d="M542 296c1,-3 3,-11 3,-11 2,-6 2,-9 1,-11 -4,-2 -9,1 -9,1 0,0 -8,3 -13,7 -2,1 -1,8 0,16 0,5 -3,12 -3,12 0,0 9,4 14,3 4,0 10,-2 9,-4 0,-3 -3,-11 -2,-13z"/>
     <path class="fil17" d="M500 246c0,0 8,17 9,21 0,2 -4,5 -6,3 -2,-1 -6,-23 -6,-23l3 -1z"/>
     <path class="fil17" d="M537 267l1 10c-1,2 -3,3 -6,3l-1 0 -2 -10 8 -3z"/>
     <path class="fil8" d="M529 265c1,-2 3,-1 4,0 0,1 0,2 -1,3 -1,1 -1,1 -2,1 1,3 3,6 6,9 2,-1 3,-2 5,-3 1,0 2,0 3,-1 2,-2 3,-6 3,-8 0,-4 -2,-7 -5,-9 -2,-2 -6,-2 -8,-1 -4,1 -4,5 -5,9z"/>
     <path class="fil15" d="M540 260c-2,3 -1,7 2,9 3,3 7,2 10,-2 2,-3 1,-7 -2,-9 -4,-2 -8,-2 -10,2z"/>
     <path class="fil8" d="M541 259c-2,3 -1,8 2,10 4,3 8,2 11,-2 2,-3 1,-8 -2,-10 -4,-2 -9,-1 -11,2z"/>
     <path class="fil14" d="M525 281c1,1 2,1 3,2 1,1 2,1 3,2 0,1 1,2 0,4 0,1 -2,2 -3,2 -3,0 -5,1 -7,1 -2,-1 -5,-2 -7,-3 -4,-3 -7,-8 -9,-12 -1,-2 -2,-5 -3,-7 2,0 3,0 4,-1 2,0 3,-2 3,-3 2,3 3,6 5,9 0,2 1,3 2,4 2,2 6,3 9,2z"/>
     <path class="fil14" d="M550 373c0,0 1,3 2,5 0,1 0,5 1,7 1,2 4,0 4,-1 -1,-1 -1,-7 -2,-8 0,-1 -3,-4 -3,-4l-2 1z"/>
    </g>
   </g>
   <g>
    <g>
     <path class="fil11" d="M225 309c0,11 8,20 19,20 11,0 19,-9 19,-20 0,-10 -8,-19 -19,-19 -11,0 -19,9 -19,19z"/>
     <g>
      <path class="fil15" d="M235 302c-1,0 -2,-1 -3,-2l-30 -39c-1,-2 -1,-5 1,-6 2,-1 5,-1 6,1l30 39c1,2 1,4 -1,6 -1,0 -2,1 -3,1z"/>
     </g>
    </g>
    <g>
     <path class="fil11" d="M182 285c0,10 8,17 17,17 9,0 17,-7 17,-17 0,-9 -8,-16 -17,-16 -9,0 -17,7 -17,16z"/>
     <g>
      <path class="fil15" d="M198 283c-2,0 -4,-1 -4,-4l0 -28c0,-2 2,-4 4,-4 2,0 4,2 4,4l0 28c0,3 -2,4 -4,4z"/>
     </g>
    </g>
    <path class="fil11" d="M237 161c0,10 -8,19 -18,19 -10,0 -19,-9 -19,-19 0,-10 9,-18 19,-18 10,0 18,8 18,18z"/>
    <path class="fil4" d="M212 252c0,8 -7,15 -15,15 -9,0 -16,-7 -16,-15 0,-9 7,-15 16,-15 8,0 15,6 15,15z"/>
    <g>
     <path class="fil15" d="M196 251c-2,0 -4,-2 -4,-4l0 -44c0,-2 2,-4 4,-4 3,0 4,2 4,4l0 44c0,2 -1,4 -4,4z"/>
    </g>
    <g>
     <path class="fil15" d="M202 195c-1,0 -2,0 -2,0 -2,-2 -3,-4 -2,-6l16 -28c1,-2 3,-2 5,-1 2,1 3,3 2,5l-16 28c0,1 -2,2 -3,2z"/>
    </g>
    <path class="fil8" d="M215 202c0,10 -8,19 -19,19 -11,0 -19,-9 -19,-19 0,-11 8,-20 19,-20 11,0 19,9 19,20z"/>
    <g>
     <path class="fil15" d="M190 204c-1,0 -2,-1 -3,-1l-29 -28c-1,-2 -1,-4 0,-6 2,-2 4,-2 6,0l29 28c2,1 2,4 0,5 -1,1 -2,2 -3,2z"/>
    </g>
    <g>
     <path class="fil8" d="M170 309c0,11 -9,20 -20,20 -10,0 -19,-9 -19,-20 0,-10 9,-19 19,-19 11,0 20,9 20,19z"/>
     <g>
      <path class="fil15" d="M159 302c-1,0 -2,-1 -3,-1 -1,-2 -2,-4 0,-6l29 -39c2,-2 4,-2 6,-1 2,1 2,4 1,6l-30 39c-1,1 -2,2 -3,2z"/>
     </g>
    </g>
    <path class="fil4" d="M185 177c0,11 -8,19 -18,19 -10,0 -18,-8 -18,-19 0,-10 8,-18 18,-18 10,0 18,8 18,18z"/>
   </g>
   <g>
    <g>
     <g>
      <path class="fil4" d="M656 383l0 1c0,0 0,0 0,0 0,-1 -1,-3 -3,-4 0,0 -1,-1 -1,-1l0 -1c0,0 1,0 1,0 2,2 3,3 3,5 0,0 0,0 0,0z"/>
      <path class="fil4" d="M652 378l0 1c-1,0 -1,0 -2,0l0 -2c1,0 1,0 2,1z"/>
      <path class="fil4" d="M650 377l0 2c0,0 -1,0 -1,0l0 -2c0,0 1,0 1,0z"/>
      <path class="fil4" d="M649 377l0 2c0,-1 -1,-1 -1,-1l0 -1c0,0 1,0 1,0z"/>
      <path class="fil4" d="M648 377l0 1c0,0 -1,0 -1,0l0 -1c0,0 1,0 1,0z"/>
      <path class="fil4" d="M647 377l0 1c0,0 -1,0 -1,0l0 -1c0,0 1,0 1,0z"/>
      <path class="fil4" d="M646 377l0 1c0,0 0,0 -1,0 0,0 0,0 0,0l0 -1c0,0 0,0 0,0 1,0 1,0 1,0z"/>
      <path class="fil4" d="M645 377l0 1c-1,0 -1,0 -1,0l0 -1c0,0 0,0 1,0z"/>
      <path class="fil4" d="M644 377l0 1c-1,0 -1,0 -2,0l0 -1c1,0 1,0 2,0z"/>
      <path class="fil4" d="M642 377l0 1c-1,1 -1,1 -2,1l0 -2c1,0 1,0 2,0z"/>
      <path class="fil4" d="M640 377l0 2c-1,0 -2,1 -2,1l0 -2c0,0 1,0 2,-1z"/>
     </g>
     <g>
      <path class="fil16" d="M656 383l0 1c0,0 0,0 0,0 0,-1 -1,-3 -3,-4 -2,-1 -5,-2 -8,-2 -3,0 -5,1 -7,2l0 -2c2,-1 4,-1 7,-1 3,-1 6,0 8,1 2,2 3,3 3,5 0,0 0,0 0,0z"/>
     </g>
     <g>
      <path class="fil16" d="M661 383l0 2c0,0 0,0 0,0l0 -2c0,0 0,0 0,0z"/>
      <path class="fil16" d="M661 383l0 2c0,0 0,0 0,1l0 -2c0,0 0,-1 0,-1z"/>
      <path class="fil16" d="M661 384l0 2c-1,0 -1,0 -1,0l0 -1c0,-1 0,-1 1,-1z"/>
      <path class="fil16" d="M660 385l0 1c0,1 0,1 0,1l0 -1c0,-1 0,-1 0,-1z"/>
      <path class="fil16" d="M660 386l0 1c0,1 -1,1 -1,1l0 -2c1,0 1,0 1,0z"/>
      <path class="fil16" d="M659 386l0 2c0,0 0,1 -1,1l0 -2c1,0 1,0 1,-1z"/>
      <path class="fil16" d="M658 387l0 2c0,1 -1,1 -2,2l0 -2c1,-1 2,-1 2,-2z"/>
      <path class="fil16" d="M656 389l0 2c0,0 0,0 0,0l0 -2c0,0 0,0 0,0z"/>
     </g>
     <g>
      <path class="fil16" d="M661 383l0 2c0,2 -2,4 -5,6l0 -2c3,-2 5,-4 5,-6z"/>
     </g>
     <g>
      <path class="fil16" d="M637 390l0 1c0,0 0,0 0,0 0,0 0,-1 -1,-1 0,0 0,0 0,0l0 -2c0,0 0,0 0,0 1,1 1,1 1,2 0,0 0,0 0,0z"/>
      <path class="fil16" d="M636 388l0 2c0,0 0,0 -1,-1l0 -1c1,0 1,0 1,0z"/>
      <path class="fil16" d="M635 388l0 1c0,0 0,0 0,0l0 -1c0,0 0,0 0,0z"/>
      <path class="fil16" d="M635 388l0 1c0,0 0,0 0,0l0 -1c0,0 0,0 0,0z"/>
      <path class="fil16" d="M635 388l0 1c0,0 0,0 -1,0l0 -1c1,0 1,0 1,0z"/>
      <path class="fil16" d="M634 388l0 1c0,0 0,0 0,0l0 -1c0,0 0,0 0,0z"/>
      <path class="fil16" d="M634 388l0 1c0,0 0,0 0,0l0 -1c0,0 0,0 0,0z"/>
      <path class="fil16" d="M634 388l0 1c0,0 -1,0 -1,0l0 -1c0,0 1,0 1,0z"/>
      <path class="fil16" d="M633 388l0 1c0,0 0,0 0,0l0 -1c0,0 0,0 0,0z"/>
      <path class="fil16" d="M633 388l0 1c0,0 -1,0 -1,1l0 -2c0,0 1,0 1,0z"/>
      <path class="fil16" d="M632 388l0 2c0,0 0,0 -1,0l0 -2c1,0 1,0 1,0z"/>
     </g>
     <g>
      <path class="fil16" d="M637 390l0 1c0,0 0,0 0,0 0,0 0,-1 -1,-1 -1,-1 -3,-1 -5,0l0 -2c2,-1 4,-1 5,0 1,1 1,1 1,2 0,0 0,0 0,0z"/>
     </g>
     <g>
      <path class="fil16" d="M642 390l0 1c0,0 0,0 0,0l0 -1c0,0 0,0 0,0z"/>
      <path class="fil16" d="M642 390l0 1c0,1 0,1 0,1l0 -2c0,0 0,0 0,0z"/>
      <path class="fil16" d="M642 390l0 2c0,0 0,0 0,0l0 -1c0,-1 0,-1 0,-1z"/>
      <path class="fil16" d="M642 391l0 1c-1,0 -1,1 -1,1l0 -2c0,0 0,0 1,0z"/>
      <path class="fil16" d="M641 391l0 2c0,0 0,0 0,0l0 -1c0,-1 0,-1 0,-1z"/>
      <path class="fil16" d="M641 392l0 1c0,0 0,1 0,1l0 -2c0,0 0,0 0,0z"/>
      <path class="fil16" d="M641 392l0 2c-1,0 -1,0 -1,0l0 -1c0,0 0,-1 1,-1z"/>
      <path class="fil16" d="M640 393l0 1c0,0 -1,0 -1,0l0 -1c1,0 1,0 1,0z"/>
     </g>
     <g>
      <path class="fil16" d="M642 390l0 1c0,1 -1,3 -3,3l0 -1c2,-1 3,-2 3,-3z"/>
     </g>
     <g>
      <g>
       <polygon class="fil16" points="631,388 631,390 615,399 615,398 "/>
      </g>
      <path class="fil16" d="M615 398l0 1c0,0 0,1 0,1l0 -2c0,0 0,0 0,0z"/>
      <path class="fil16" d="M615 398l0 2c0,0 0,0 -1,0l0 -2c1,0 1,0 1,0z"/>
      <path class="fil16" d="M614 398l0 2c0,0 0,0 0,0l0 -2c0,0 0,0 0,0z"/>
      <path class="fil16" d="M614 398l0 2c0,0 0,0 0,0l0 -2c0,0 0,0 0,0z"/>
      <path class="fil16" d="M614 398l0 2c0,0 0,0 0,0l0 -2c0,0 0,0 0,0z"/>
      <path class="fil16" d="M614 398l0 2c0,0 0,0 -1,0l0 -2c1,0 1,0 1,0z"/>
      <path class="fil16" d="M613 398l0 2c0,0 0,0 0,0l0 -2c0,0 0,0 0,0z"/>
      <path class="fil16" d="M613 398l0 2c0,0 0,0 0,0l0 -2c0,0 0,0 0,0z"/>
      <path class="fil16" d="M613 398l0 2c0,0 0,0 0,0l0 -2c0,0 0,0 0,0z"/>
      <path class="fil16" d="M613 398l0 2c0,0 0,0 0,0l0 -2c0,0 0,0 0,0z"/>
      <path class="fil16" d="M613 398l0 2c-1,-1 -1,-1 -1,-1 0,0 0,0 0,-1l0 -1c0,0 0,0 0,1 0,0 0,0 1,0z"/>
     </g>
     <g>
      <path class="fil16" d="M612 398l0 -1c0,0 0,0 0,1 1,0 2,0 3,0l0 1c-1,1 -2,1 -3,0 0,0 0,0 0,-1z"/>
     </g>
     <g>
      <g>
       <polygon class="fil16" points="638,378 638,380 602,401 603,399 "/>
      </g>
      <path class="fil16" d="M603 399l-1 2c0,0 0,0 0,0l0 -2c0,0 0,0 1,0z"/>
      <path class="fil16" d="M602 399l0 2c0,0 0,0 0,0l0 -1c0,0 0,-1 0,-1z"/>
      <path class="fil16" d="M602 400l0 1c-1,1 -1,1 -1,1l0 -2c0,0 0,0 1,0z"/>
      <path class="fil16" d="M601 400l0 2c0,0 0,0 0,0l0 -1c0,0 0,-1 0,-1z"/>
      <path class="fil16" d="M601 401l0 1c0,1 0,1 0,1l0 -2c0,0 0,0 0,0z"/>
      <path class="fil16" d="M601 401l0 2c0,0 0,0 -1,0l0 -1c1,-1 1,-1 1,-1z"/>
      <path class="fil16" d="M600 402l0 1c0,0 0,0 0,1l0 -2c0,0 0,0 0,0z"/>
      <path class="fil16" d="M600 402l0 2c0,0 0,0 0,0l0 -2c0,0 0,0 0,0z"/>
     </g>
     <g>
      <path class="fil16" d="M600 404l0 -2c0,-1 1,-2 3,-3l-1 2c-1,1 -2,2 -2,3z"/>
     </g>
     <g>
      <g>
       <polygon class="fil16" points="656,389 656,391 629,407 629,405 "/>
      </g>
      <path class="fil16" d="M629 405l0 2c-1,0 -1,0 -1,0l0 -1c0,-1 0,-1 1,-1z"/>
      <path class="fil16" d="M628 406l0 1c0,0 0,0 0,0l0 -1c0,0 0,0 0,0z"/>
      <path class="fil16" d="M628 406l0 1c0,0 0,0 -1,0l0 -1c1,0 1,0 1,0z"/>
      <path class="fil16" d="M627 406l0 1c0,0 0,0 0,0l0 -1c0,0 0,0 0,0z"/>
      <path class="fil16" d="M627 406l0 1c0,0 0,0 0,0l0 -1c0,0 0,0 0,0z"/>
      <path class="fil16" d="M627 406l0 1c0,0 0,0 0,0l0 -1c0,0 0,0 0,0z"/>
      <path class="fil16" d="M627 406l0 1c0,0 0,0 0,0l0 -1c0,0 0,0 0,0z"/>
      <path class="fil16" d="M627 406l0 1c-1,0 -1,0 -1,0l0 -1c0,0 0,0 1,0z"/>
      <path class="fil16" d="M626 406l0 1c0,0 0,0 0,0l0 -1c0,0 0,0 0,0z"/>
      <path class="fil16" d="M626 406l0 1c0,0 0,0 0,0l0 -2c0,0 0,1 0,1z"/>
      <path class="fil16" d="M626 405l0 2c0,0 0,0 0,0 -1,0 -1,-1 -1,-1l0 -2c0,1 0,1 1,1 0,0 0,0 0,0z"/>
     </g>
     <g>
      <path class="fil16" d="M625 406l0 -2c0,1 0,1 1,1 0,1 2,1 3,0l0 2c-1,0 -3,0 -3,0 -1,0 -1,-1 -1,-1z"/>
     </g>
     <g>
      <g>
       <polygon class="fil16" points="639,393 639,394 616,408 616,407 "/>
      </g>
      <path class="fil16" d="M616 407l0 1c-1,1 -2,1 -3,2l0 -2c1,0 2,-1 3,-1z"/>
      <path class="fil16" d="M613 408l0 2c0,0 -1,0 -2,0l0 -2c1,0 2,0 2,0z"/>
      <path class="fil16" d="M611 408l0 2c0,0 -1,0 -1,0l0 -1c0,0 1,-1 1,-1z"/>
      <path class="fil16" d="M610 409l0 1c-1,0 -1,0 -2,0l0 -1c1,0 1,0 2,0z"/>
      <path class="fil16" d="M608 409l0 1c0,0 0,0 0,0 0,0 -1,0 -1,0l0 -1c0,0 1,0 1,0 0,0 0,0 0,0z"/>
      <path class="fil16" d="M607 409l0 1c0,0 -1,0 -1,0l0 -1c0,0 1,0 1,0z"/>
      <path class="fil16" d="M606 409l0 1c0,0 -1,0 -1,0l0 -1c0,0 1,0 1,0z"/>
      <path class="fil16" d="M605 409l0 1c0,0 -1,0 -1,0l0 -2c0,0 1,0 1,1z"/>
      <path class="fil16" d="M604 408l0 2c-1,0 -1,0 -1,0l0 -2c0,0 0,0 1,0z"/>
      <path class="fil16" d="M603 408l0 2c-1,0 -1,-1 -2,-1l0 -1c1,0 1,0 2,0z"/>
      <path class="fil16" d="M601 408l0 1c0,0 -1,0 -1,-1 -3,-1 -4,-3 -4,-4l0 -2c0,2 1,3 4,5 0,0 1,0 1,1z"/>
     </g>
     <g>
      <path class="fil16" d="M596 404l0 -2c0,2 1,3 4,5 2,1 5,2 8,2 3,0 6,-1 8,-2l0 1c-2,2 -5,2 -8,2 -3,0 -6,0 -8,-2 -3,-1 -4,-3 -4,-4z"/>
     </g>
    </g>
    <g>
     <path class="fil18" d="M656 377c3,1 5,3 5,6 0,2 -2,4 -5,6l-27 16c-1,1 -3,1 -3,0 -1,0 -1,-1 0,-1l27 -17c2,-1 3,-3 3,-4 0,-2 -1,-3 -3,-5 -2,-1 -5,-2 -8,-1 -3,0 -5,0 -7,1l-35 21c-3,2 -3,4 0,6 2,2 7,2 10,0l23 -14c1,0 1,-1 1,-1 0,-1 0,-1 -1,-2 -1,-1 -3,-1 -5,0l-16 10c-1,0 -2,0 -3,0 -1,-1 -1,-2 0,-2l16 -10c3,-1 8,-1 11,0 2,1 3,2 3,4 0,1 -1,2 -3,3l-23 14c-2,1 -5,2 -8,2 -3,0 -6,-1 -8,-2 -5,-3 -5,-7 -1,-10l36 -20c2,-2 6,-3 10,-3 4,0 8,1 11,3z"/>
    </g>
   </g>
   <g>
    <g>
     <g>
      <path class="fil18" d="M600 203l0 1c0,0 0,0 0,0 0,-1 -1,-3 -3,-3 0,-1 -1,-1 -1,-1l0 -1c0,0 1,0 1,0 2,1 3,2 3,4 0,0 0,0 0,0z"/>
      <path class="fil18" d="M596 199l0 1c-1,0 -1,0 -1,0l0 -2c0,0 0,0 1,1z"/>
      <path class="fil18" d="M595 198l0 2c-1,-1 -1,-1 -1,-1l0 -1c0,0 0,0 1,0z"/>
      <path class="fil18" d="M594 198l0 1c-1,0 -1,0 -1,0l0 -1c0,0 1,0 1,0z"/>
      <path class="fil18" d="M593 198l0 1c0,0 -1,0 -1,0l0 -1c0,0 1,0 1,0z"/>
      <path class="fil18" d="M592 198l0 1c0,0 -1,0 -1,0l0 -1c0,0 1,0 1,0z"/>
      <path class="fil18" d="M591 198l0 1c0,0 0,0 0,0 0,0 -1,0 -1,0l0 -1c0,0 1,0 1,0 0,0 0,0 0,0z"/>
      <path class="fil18" d="M590 198l0 1c0,0 0,0 -1,0l0 -1c1,0 1,0 1,0z"/>
      <path class="fil18" d="M589 198l0 1c0,0 0,0 -1,0l0 -1c1,0 1,0 1,0z"/>
      <path class="fil18" d="M588 198l0 1c0,0 -1,0 -1,1l0 -2c0,0 1,0 1,0z"/>
      <path class="fil18" d="M587 198l0 2c-1,0 -2,0 -2,1l0 -2c0,0 1,0 2,-1z"/>
     </g>
     <g>
      <path class="fil16" d="M600 203l0 1c0,0 0,0 0,0 0,-1 -1,-3 -3,-3 -2,-1 -4,-2 -6,-2 -3,0 -5,1 -6,2l0 -2c1,-1 3,-1 6,-1 2,0 4,0 6,1 2,1 3,2 3,4 0,0 0,0 0,0z"/>
     </g>
     <g>
      <path class="fil16" d="M603 203l0 1c0,0 0,0 0,0l0 -1c0,0 0,0 0,0z"/>
      <path class="fil16" d="M603 203l0 1c0,1 0,1 0,1l0 -1c0,-1 0,-1 0,-1z"/>
      <path class="fil16" d="M603 204l0 1c0,0 0,0 0,1l0 -2c0,0 0,0 0,0z"/>
      <path class="fil16" d="M603 204l0 2c0,0 0,0 0,0l0 -1c0,0 0,0 0,-1z"/>
      <path class="fil16" d="M603 205l0 1c-1,1 -1,1 -1,1l0 -1c0,0 0,-1 1,-1z"/>
      <path class="fil16" d="M602 206l0 1c0,0 0,1 -1,1l0 -1c1,-1 1,-1 1,-1z"/>
      <path class="fil16" d="M601 207l0 1c0,0 -1,1 -1,1l0 -1c0,-1 1,-1 1,-1z"/>
      <path class="fil16" d="M600 208l0 1c0,0 0,0 0,0l0 -1c0,0 0,0 0,0z"/>
     </g>
     <g>
      <path class="fil16" d="M603 203l0 1c0,2 -1,4 -3,5l0 -1c2,-2 3,-3 3,-5z"/>
     </g>
     <g>
      <path class="fil16" d="M584 208l0 2c0,0 0,0 0,0 0,-1 0,-1 -1,-1 0,-1 0,-1 0,-1l0 -1c0,0 0,0 0,0 1,0 1,1 1,1 0,0 0,0 0,0z"/>
      <path class="fil16" d="M583 207l0 1c0,0 0,0 0,0l0 -1c0,0 0,0 0,0z"/>
      <path class="fil16" d="M583 207l0 1c0,0 0,0 -1,0l0 -1c1,0 1,0 1,0z"/>
      <path class="fil16" d="M582 207l0 1c0,0 0,0 0,0l0 -1c0,0 0,0 0,0z"/>
      <path class="fil16" d="M582 207l0 1c0,0 0,0 0,0l0 -1c0,0 0,0 0,0z"/>
      <path class="fil16" d="M582 207l0 1c0,0 0,0 0,0l0 -1c0,0 0,0 0,0z"/>
      <path class="fil16" d="M582 207l0 1c0,0 -1,0 -1,0l0 -1c0,0 1,0 1,0z"/>
      <path class="fil16" d="M581 207l0 1c0,0 0,0 0,0l0 -1c0,0 0,0 0,0z"/>
      <path class="fil16" d="M581 207l0 1c0,0 0,0 0,0l0 -1c0,0 0,0 0,0z"/>
      <path class="fil16" d="M581 207l0 1c-1,0 -1,0 -1,0l0 -1c0,0 0,0 1,0z"/>
      <path class="fil16" d="M580 207l0 1c0,0 0,0 -1,1l0 -2c1,0 1,0 1,0z"/>
     </g>
     <g>
      <path class="fil16" d="M584 208l0 2c0,0 0,0 0,0 0,-1 0,-1 -1,-1 -1,-1 -2,-1 -4,0l0 -2c2,0 3,0 4,0 1,0 1,1 1,1 0,0 0,0 0,0z"/>
     </g>
     <g>
      <path class="fil16" d="M588 208l0 2c0,0 0,0 0,0l0 -2c0,0 0,0 0,0z"/>
      <path class="fil16" d="M588 208l0 2c0,0 0,0 0,0l0 -1c0,0 0,0 0,-1z"/>
      <path class="fil16" d="M588 209l0 1c0,0 0,0 0,0l0 -1c0,0 0,0 0,0z"/>
      <path class="fil16" d="M588 209l0 1c0,1 0,1 0,1l0 -2c0,0 0,0 0,0z"/>
      <path class="fil16" d="M588 209l0 2c-1,0 -1,0 -1,0l0 -1c0,0 0,0 1,-1z"/>
      <path class="fil16" d="M587 210l0 1c0,0 0,0 0,1l0 -2c0,0 0,0 0,0z"/>
      <path class="fil16" d="M587 210l0 2c0,0 -1,0 -1,0l0 -1c0,0 1,-1 1,-1z"/>
      <path class="fil16" d="M586 211l0 1c0,0 0,0 0,0l0 -1c0,0 0,0 0,0z"/>
     </g>
     <g>
      <path class="fil16" d="M588 208l0 2c0,1 -1,2 -2,2l0 -1c1,-1 2,-2 2,-3z"/>
     </g>
     <g>
      <g>
       <polygon class="fil16" points="579,207 579,209 566,216 566,215 "/>
      </g>
      <path class="fil16" d="M566 215l0 1c0,0 0,0 0,0l0 -1c0,0 0,0 0,0z"/>
      <path class="fil16" d="M566 215l0 1c0,0 0,0 0,0l0 -1c0,0 0,0 0,0z"/>
      <path class="fil16" d="M566 215l0 1c0,1 0,1 -1,1l0 -2c1,0 1,0 1,0z"/>
      <path class="fil16" d="M565 215l0 2c0,0 0,0 0,0l0 -2c0,0 0,0 0,0z"/>
      <path class="fil16" d="M565 215l0 2c0,0 0,0 0,0l0 -2c0,0 0,0 0,0z"/>
      <path class="fil16" d="M565 215l0 2c0,0 0,0 0,0l0 -2c0,0 0,0 0,0z"/>
      <path class="fil16" d="M565 215l0 2c0,0 0,0 0,0l0 -2c0,0 0,0 0,0z"/>
      <path class="fil16" d="M565 215l0 2c0,-1 0,-1 0,-1l0 -1c0,0 0,0 0,0z"/>
      <path class="fil16" d="M565 215l0 1c0,0 -1,0 -1,0l0 -1c0,0 1,0 1,0z"/>
      <path class="fil16" d="M564 215l0 1c0,0 0,0 0,0l0 -1c0,0 0,0 0,0z"/>
      <path class="fil16" d="M564 215l0 1c0,0 0,0 0,0 0,0 -1,0 -1,0l0 -2c0,0 1,1 1,1 0,0 0,0 0,0z"/>
     </g>
     <g>
      <path class="fil16" d="M563 216l0 -2c0,0 1,1 1,1 1,0 2,0 2,0l0 1c0,1 -1,1 -2,0 0,0 -1,0 -1,0z"/>
     </g>
     <g>
      <g>
       <polygon class="fil16" points="585,199 585,201 556,217 556,216 "/>
      </g>
      <path class="fil16" d="M556 216l0 1c0,0 0,0 0,0l0 -1c0,0 0,0 0,0z"/>
      <path class="fil16" d="M556 216l0 1c0,1 -1,1 -1,1l0 -1c0,-1 1,-1 1,-1z"/>
      <path class="fil16" d="M555 217l0 1c0,0 0,0 0,0l0 -1c0,0 0,0 0,0z"/>
      <path class="fil16" d="M555 217l0 1c0,0 0,1 0,1l0 -2c0,0 0,0 0,0z"/>
      <path class="fil16" d="M555 217l0 2c0,0 0,0 0,0l0 -1c0,0 0,-1 0,-1z"/>
      <path class="fil16" d="M555 218l0 1c-1,0 -1,0 -1,0l0 -1c0,0 0,0 1,0z"/>
      <path class="fil16" d="M554 218l0 1c0,0 0,1 0,1l0 -2c0,0 0,0 0,0z"/>
      <path class="fil16" d="M554 218l0 2c0,0 0,0 0,0l0 -2c0,0 0,0 0,0z"/>
     </g>
     <g>
      <path class="fil16" d="M554 220l0 -2c0,0 1,-1 2,-2l0 1c-1,1 -2,2 -2,3z"/>
     </g>
     <g>
      <g>
       <polygon class="fil16" points="600,208 600,209 577,222 577,221 "/>
      </g>
      <path class="fil16" d="M577 221l0 1c0,0 0,0 0,1l0 -2c0,0 0,0 0,0z"/>
      <path class="fil16" d="M577 221l0 2c0,0 0,0 -1,0l0 -2c1,0 1,0 1,0z"/>
      <path class="fil16" d="M576 221l0 2c0,0 0,0 0,0l0 -2c0,0 0,0 0,0z"/>
      <path class="fil16" d="M576 221l0 2c0,0 0,0 0,0l0 -2c0,0 0,0 0,0z"/>
      <path class="fil16" d="M576 221l0 2c0,0 0,0 0,0l0 -2c0,0 0,0 0,0z"/>
      <path class="fil16" d="M576 221l0 2c0,0 0,0 0,0l0 -2c0,0 0,0 0,0z"/>
      <path class="fil16" d="M576 221l0 2c0,0 0,0 0,0l0 -2c0,0 0,0 0,0z"/>
      <path class="fil16" d="M576 221l0 2c-1,0 -1,0 -1,0l0 -2c0,0 0,0 1,0z"/>
      <path class="fil16" d="M575 221l0 2c0,0 0,0 0,0l0 -2c0,0 0,0 0,0z"/>
      <path class="fil16" d="M575 221l0 2c0,0 0,0 0,-1l0 -1c0,0 0,0 0,0z"/>
      <path class="fil16" d="M575 221l0 1c0,0 0,0 0,0 -1,0 -1,0 -1,0l0 -2c0,1 0,1 1,1 0,0 0,0 0,0z"/>
     </g>
     <g>
      <path class="fil16" d="M574 222l0 -2c0,1 0,1 1,1 0,0 2,0 2,0l0 1c0,1 -2,1 -2,0 -1,0 -1,0 -1,0z"/>
     </g>
     <g>
      <g>
       <polygon class="fil16" points="586,211 586,212 567,224 567,222 "/>
      </g>
      <path class="fil16" d="M567 222l0 2c-1,0 -1,0 -2,0l0 -1c1,0 1,0 2,-1z"/>
      <path class="fil16" d="M565 223l0 1c-1,1 -1,1 -2,1l0 -1c1,-1 1,-1 2,-1z"/>
      <path class="fil16" d="M563 224l0 1c0,0 -1,0 -1,0l0 -1c0,0 1,0 1,0z"/>
      <path class="fil16" d="M562 224l0 1c-1,0 -1,0 -1,0l0 -1c0,0 0,0 1,0z"/>
      <path class="fil16" d="M561 224l0 1c0,0 -1,0 -1,0 0,0 0,0 0,0l0 -1c0,0 0,0 0,0 0,0 1,0 1,0z"/>
      <path class="fil16" d="M560 224l0 1c0,0 -1,0 -1,0l0 -1c0,0 1,0 1,0z"/>
      <path class="fil16" d="M559 224l0 1c0,0 -1,0 -1,0l0 -1c0,0 1,0 1,0z"/>
      <path class="fil16" d="M558 224l0 1c0,0 -1,0 -1,0l0 -2c0,1 1,1 1,1z"/>
      <path class="fil16" d="M557 223l0 2c0,0 -1,0 -1,0l0 -2c0,0 1,0 1,0z"/>
      <path class="fil16" d="M556 223l0 2c0,-1 -1,-1 -1,-1l0 -1c0,0 1,0 1,0z"/>
      <path class="fil16" d="M555 223l0 1c0,0 -1,0 -1,0 -2,-1 -3,-3 -3,-4l0 -2c0,2 1,3 3,4 0,0 1,1 1,1z"/>
     </g>
     <g>
      <path class="fil16" d="M551 220l0 -2c0,2 1,3 3,4 1,1 4,2 6,2 3,0 5,-1 7,-2l0 2c-2,1 -4,1 -7,1 -2,0 -5,0 -6,-1 -2,-1 -3,-3 -3,-4z"/>
     </g>
    </g>
    <g>
     <path class="fil4" d="M599 198c3,1 4,3 4,5 0,2 -1,3 -3,5l-23 13c0,0 -2,0 -2,0 -1,0 -1,-1 0,-1l22 -14c2,-1 3,-2 3,-3 0,-2 -1,-3 -3,-4 -2,-1 -4,-1 -6,-1 -3,0 -5,0 -6,1l-29 17c-2,1 -2,3 0,5 2,1 6,1 8,0l20 -12c0,0 0,0 0,-1 0,0 0,-1 -1,-1 -1,0 -2,0 -4,0l-13 8c0,0 -1,0 -2,0 -1,0 -1,-1 0,-2l13 -7c2,-2 6,-2 9,0 1,0 2,1 2,2 0,1 -1,2 -2,3l-19 11c-2,1 -4,2 -7,2 -2,0 -5,-1 -6,-2 -4,-2 -4,-5 0,-7l28 -17c2,-2 5,-2 9,-2 3,0 6,0 8,2z"/>
    </g>
   </g>
   <g>
    <g>
     <g>
      <path class="fil4" d="M225 394l0 1c0,0 0,0 0,0 0,-1 -1,-3 -3,-4 0,0 -1,0 -1,0l0 -2c0,1 1,1 1,1 2,1 3,2 3,4 0,0 0,0 0,0z"/>
      <path class="fil4" d="M221 389l0 2c-1,0 -1,0 -1,-1l0 -1c0,0 0,0 1,0z"/>
      <path class="fil4" d="M220 389l0 1c-1,0 -1,0 -1,0l0 -1c0,0 0,0 1,0z"/>
      <path class="fil4" d="M219 389l0 1c-1,0 -1,0 -1,0l0 -1c0,0 0,0 1,0z"/>
      <path class="fil4" d="M218 389l0 1c0,0 -1,0 -1,0l0 -1c0,0 1,0 1,0z"/>
      <path class="fil4" d="M217 389l0 1c0,0 -1,0 -1,0l0 -1c0,0 1,0 1,0z"/>
      <path class="fil4" d="M216 389l0 1c0,0 0,0 0,0 -1,0 -1,0 -1,0l0 -1c0,0 1,0 1,0 0,0 0,0 0,0z"/>
      <path class="fil4" d="M215 389l0 1c0,0 0,0 -1,0l0 -1c1,0 1,0 1,0z"/>
      <path class="fil4" d="M214 389l0 1c0,0 -1,0 -1,0l0 -1c0,0 1,0 1,0z"/>
      <path class="fil4" d="M213 389l0 1c0,0 -1,0 -2,1l0 -2c1,0 2,0 2,0z"/>
      <path class="fil4" d="M211 389l0 2c0,0 -1,0 -2,0l0 -1c1,0 2,-1 2,-1z"/>
     </g>
     <g>
      <path class="fil10" d="M225 394l0 1c0,0 0,0 0,0 0,-1 -1,-3 -3,-4 -2,-1 -4,-1 -6,-1 -3,0 -5,0 -7,1l0 -1c2,-1 4,-1 7,-1 2,0 4,0 6,1 2,1 3,2 3,4 0,0 0,0 0,0z"/>
     </g>
     <g>
      <path class="fil10" d="M228 394l0 1c0,0 0,0 0,0l0 -1c0,0 0,0 0,0z"/>
      <path class="fil10" d="M228 394l0 1c0,0 0,1 0,1l0 -1c0,-1 0,-1 0,-1z"/>
      <path class="fil10" d="M228 395l0 1c0,0 0,0 0,1l0 -2c0,0 0,0 0,0z"/>
      <path class="fil10" d="M228 395l0 2c0,0 0,0 -1,0l1 -1c0,0 0,0 0,-1z"/>
      <path class="fil10" d="M228 396l-1 1c0,1 0,1 0,1l0 -1c0,-1 0,-1 1,-1z"/>
      <path class="fil10" d="M227 397l0 1c0,0 0,1 -1,1l0 -1c1,-1 1,-1 1,-1z"/>
      <path class="fil10" d="M226 398l0 1c0,0 -1,1 -1,1l0 -1c0,-1 1,-1 1,-1z"/>
      <path class="fil10" d="M225 399l0 1c0,0 0,0 0,0l0 -1c0,0 0,0 0,0z"/>
     </g>
     <g>
      <path class="fil10" d="M228 394l0 1c0,2 -1,4 -3,5l0 -1c2,-2 3,-3 3,-5z"/>
     </g>
     <g>
      <path class="fil10" d="M209 399l0 2c0,0 0,0 0,0 0,-1 0,-1 -1,-2 0,0 0,0 0,0l0 -1c0,0 0,0 0,0 1,0 1,1 1,1 0,0 0,0 0,0z"/>
      <path class="fil10" d="M208 398l0 1c0,0 0,0 0,0l0 -1c0,0 0,0 0,0z"/>
      <path class="fil10" d="M208 398l0 1c0,0 -1,0 -1,0l0 -1c0,0 1,0 1,0z"/>
      <path class="fil10" d="M207 398l0 1c0,0 0,0 0,0l0 -1c0,0 0,0 0,0z"/>
      <path class="fil10" d="M207 398l0 1c0,0 0,0 0,0l0 -1c0,0 0,0 0,0z"/>
      <path class="fil10" d="M207 398l0 1c0,0 0,0 -1,0l0 -1c1,0 1,0 1,0z"/>
      <path class="fil10" d="M206 398l0 1c0,0 0,0 0,0l0 -1c0,0 0,0 0,0z"/>
      <path class="fil10" d="M206 398l0 1c0,0 0,0 0,0l0 -1c0,0 0,0 0,0z"/>
      <path class="fil10" d="M206 398l0 1c0,0 0,0 -1,0l1 -1c0,0 0,0 0,0z"/>
      <path class="fil10" d="M206 398l-1 1c0,0 0,0 0,0l0 -1c0,0 0,0 1,0z"/>
      <path class="fil10" d="M205 398l0 1c0,0 0,0 -1,0l0 -1c1,0 1,0 1,0z"/>
     </g>
     <g>
      <path class="fil10" d="M209 399l0 2c0,0 0,0 0,0 0,-1 0,-1 -1,-2 -1,0 -3,0 -4,0l0 -1c1,-1 3,-1 4,0 1,0 1,1 1,1 0,0 0,0 0,0z"/>
     </g>
     <g>
      <path class="fil10" d="M213 399l0 2c0,0 0,0 0,0l0 -2c0,0 0,0 0,0z"/>
      <path class="fil10" d="M213 399l0 2c0,0 0,0 0,0l0 -1c0,0 0,-1 0,-1z"/>
      <path class="fil10" d="M213 400l0 1c0,0 0,0 0,0l0 -1c0,0 0,0 0,0z"/>
      <path class="fil10" d="M213 400l0 1c0,1 -1,1 -1,1l0 -2c0,0 1,0 1,0z"/>
      <path class="fil10" d="M212 400l0 2c0,0 0,0 0,0l0 -1c0,0 0,0 0,-1z"/>
      <path class="fil10" d="M212 401l0 1c0,0 0,0 0,1l0 -2c0,0 0,0 0,0z"/>
      <path class="fil10" d="M212 401l0 2c0,0 -1,0 -1,0l0 -1c0,0 1,-1 1,-1z"/>
      <path class="fil10" d="M211 402l0 1c0,0 0,0 0,0l0 -1c0,0 0,0 0,0z"/>
     </g>
     <g>
      <path class="fil10" d="M213 399l0 2c0,1 -1,2 -2,2l0 -1c1,-1 2,-2 2,-3z"/>
     </g>
     <g>
      <g>
       <polygon class="fil10" points="204,398 204,399 191,407 191,406 "/>
      </g>
      <path class="fil10" d="M191 406l0 1c0,0 0,0 0,0l0 -1c0,0 0,0 0,0z"/>
      <path class="fil10" d="M191 406l0 1c0,0 0,0 -1,0l0 -1c1,0 1,0 1,0z"/>
      <path class="fil10" d="M190 406l0 1c0,1 0,1 0,1l0 -2c0,0 0,0 0,0z"/>
      <path class="fil10" d="M190 406l0 2c0,0 0,0 0,0l0 -2c0,0 0,0 0,0z"/>
      <path class="fil10" d="M190 406l0 2c0,0 0,0 0,0l0 -2c0,0 0,0 0,0z"/>
      <path class="fil10" d="M190 406l0 2c0,0 0,0 0,0l0 -2c0,0 0,0 0,0z"/>
      <path class="fil10" d="M190 406l0 2c0,0 0,0 0,0l0 -2c0,0 0,0 0,0z"/>
      <path class="fil10" d="M190 406l0 2c-1,-1 -1,-1 -1,-1l0 -1c0,0 0,0 1,0z"/>
      <path class="fil10" d="M189 406l0 1c0,0 0,0 0,0l0 -1c0,0 0,0 0,0z"/>
      <path class="fil10" d="M189 406l0 1c0,0 0,0 0,0l0 -1c0,0 0,0 0,0z"/>
      <path class="fil10" d="M189 406l0 1c0,0 0,0 0,0 -1,0 -1,0 -1,0l0 -2c0,0 0,1 1,1 0,0 0,0 0,0z"/>
     </g>
     <g>
      <path class="fil10" d="M188 407l0 -2c0,0 0,1 1,1 0,0 2,0 2,0l0 1c0,1 -2,1 -2,0 -1,0 -1,0 -1,0z"/>
     </g>
     <g>
      <g>
       <polygon class="fil10" points="209,390 209,391 181,408 181,407 "/>
      </g>
      <path class="fil10" d="M181 407l0 1c0,0 0,0 0,0l0 -1c0,0 0,0 0,0z"/>
      <path class="fil10" d="M181 407l0 1c-1,1 -1,1 -1,1l0 -1c0,-1 0,-1 1,-1z"/>
      <path class="fil10" d="M180 408l0 1c0,0 0,0 0,0l0 -1c0,0 0,0 0,0z"/>
      <path class="fil10" d="M180 408l0 1c0,0 -1,1 -1,1l0 -2c0,0 1,0 1,0z"/>
      <path class="fil10" d="M179 408l0 2c0,0 0,0 0,0l0 -1c0,0 0,-1 0,-1z"/>
      <path class="fil10" d="M179 409l0 1c0,0 0,0 0,0l0 -1c0,0 0,0 0,0z"/>
      <path class="fil10" d="M179 409l0 1c0,0 0,1 0,1l0 -2c0,0 0,0 0,0z"/>
      <path class="fil10" d="M179 409l0 2c0,0 0,0 0,0l0 -2c0,0 0,0 0,0z"/>
     </g>
     <g>
      <path class="fil10" d="M179 411l0 -2c0,0 1,-1 2,-2l0 1c-1,1 -2,2 -2,3z"/>
     </g>
     <g>
      <g>
       <polygon class="fil10" points="225,399 225,400 202,413 202,412 "/>
      </g>
      <path class="fil10" d="M202 412l0 1c0,0 0,1 0,1l0 -2c0,0 0,0 0,0z"/>
      <path class="fil10" d="M202 412l0 2c0,0 -1,0 -1,0l0 -2c0,0 1,0 1,0z"/>
      <path class="fil10" d="M201 412l0 2c0,0 0,0 0,0l0 -2c0,0 0,0 0,0z"/>
      <path class="fil10" d="M201 412l0 2c0,0 0,0 0,0l0 -2c0,0 0,0 0,0z"/>
      <path class="fil10" d="M201 412l0 2c0,0 0,0 0,0l0 -2c0,0 0,0 0,0z"/>
      <path class="fil10" d="M201 412l0 2c0,0 0,0 0,0l0 -2c0,0 0,0 0,0z"/>
      <path class="fil10" d="M201 412l0 2c-1,0 -1,0 -1,0l0 -2c0,0 0,0 1,0z"/>
      <path class="fil10" d="M200 412l0 2c0,0 0,0 0,0l0 -2c0,0 0,0 0,0z"/>
      <path class="fil10" d="M200 412l0 2c0,0 0,0 0,0l0 -2c0,0 0,0 0,0z"/>
      <path class="fil10" d="M200 412l0 2c0,0 0,0 0,0l0 -2c0,0 0,0 0,0z"/>
      <path class="fil10" d="M200 412l0 2c0,-1 0,-1 0,-1 -1,0 -1,0 -1,0l0 -2c0,1 0,1 1,1 0,0 0,0 0,0z"/>
     </g>
     <g>
      <path class="fil10" d="M199 413l0 -2c0,1 0,1 1,1 0,0 1,0 2,0l0 1c-1,1 -2,1 -2,0 -1,0 -1,0 -1,0z"/>
     </g>
     <g>
      <g>
       <polygon class="fil10" points="211,402 211,403 192,415 192,413 "/>
      </g>
      <path class="fil10" d="M192 413l0 2c-1,0 -2,0 -2,1l0 -2c0,0 1,0 2,-1z"/>
      <path class="fil10" d="M190 414l0 2c-1,0 -2,0 -2,0l0 -1c0,-1 1,-1 2,-1z"/>
      <path class="fil10" d="M188 415l0 1c-1,0 -1,0 -1,0l0 -1c0,0 0,0 1,0z"/>
      <path class="fil10" d="M187 415l0 1c-1,0 -1,0 -1,0l0 -1c0,0 0,0 1,0z"/>
      <path class="fil10" d="M186 415l0 1c-1,0 -1,0 -1,0 0,0 0,0 0,0l0 -1c0,0 0,0 0,0 0,0 0,0 1,0z"/>
      <path class="fil10" d="M185 415l0 1c-1,0 -1,0 -1,0l0 -1c0,0 0,0 1,0z"/>
      <path class="fil10" d="M184 415l0 1c-1,0 -1,0 -1,0l0 -1c0,0 0,0 1,0z"/>
      <path class="fil10" d="M183 415l0 1c-1,0 -1,0 -1,0l0 -1c0,0 0,0 1,0z"/>
      <path class="fil10" d="M182 415l0 1c0,0 -1,0 -1,0l0 -2c0,0 1,0 1,1z"/>
      <path class="fil10" d="M181 414l0 2c-1,0 -1,-1 -1,-1l0 -1c0,0 0,0 1,0z"/>
      <path class="fil10" d="M180 414l0 1c-1,0 -1,0 -2,0 -1,-1 -2,-3 -2,-4l0 -2c0,2 1,3 2,4 1,1 1,1 2,1z"/>
     </g>
     <g>
      <path class="fil10" d="M176 411l0 -2c0,2 1,3 2,4 2,1 5,2 7,2 3,0 5,-1 7,-2l0 2c-2,1 -4,1 -7,1 -2,0 -5,0 -7,-1 -1,-1 -2,-3 -2,-4z"/>
     </g>
    </g>
    <g>
     <path class="fil11" d="M224 389c3,1 4,3 4,5 0,2 -1,3 -3,5l-23 13c-1,0 -2,0 -2,0 -1,0 -1,-1 0,-1l22 -14c2,-1 3,-2 3,-3 0,-2 -1,-3 -3,-4 -2,-1 -4,-1 -6,-1 -3,0 -5,0 -7,1l-28 17c-2,1 -2,3 0,5 2,1 6,1 8,0l19 -12c1,0 1,0 1,-1 0,0 0,-1 -1,-1 -1,-1 -3,-1 -4,0l-13 8c0,0 -2,0 -2,0 -1,-1 -1,-1 0,-2l13 -7c2,-2 6,-2 9,0 1,0 2,1 2,2 0,1 -1,2 -2,3l-19 11c-2,1 -4,2 -7,2 -2,0 -5,-1 -7,-2 -3,-2 -3,-5 0,-7l29 -17c2,-2 5,-2 9,-2 3,0 6,0 8,2z"/>
    </g>
   </g>
   <g>
    <g>
     <g>
      <path class="fil11" d="M390 464l0 2c0,0 0,0 0,0 0,-2 1,-3 3,-4 1,-1 1,-1 2,-1l0 -2c-1,0 -1,1 -2,1 -2,1 -3,3 -3,4 0,0 0,0 0,0z"/>
      <path class="fil11" d="M395 459l0 2c0,0 1,-1 1,-1l0 -1c0,0 -1,0 -1,0z"/>
      <path class="fil11" d="M396 459l0 1c1,0 1,0 1,0l0 -2c0,0 0,1 -1,1z"/>
      <path class="fil11" d="M397 458l0 2c1,0 1,0 2,0l0 -2c-1,0 -1,0 -2,0z"/>
      <path class="fil11" d="M399 458l0 2c0,0 0,0 1,0l0 -2c-1,0 -1,0 -1,0z"/>
      <path class="fil11" d="M400 458l0 2c0,0 0,0 1,0l0 -2c-1,0 -1,0 -1,0z"/>
      <path class="fil11" d="M401 458l0 2c0,0 0,0 0,0 0,0 1,0 1,0l0 -2c0,0 -1,0 -1,0 0,0 0,0 0,0z"/>
      <path class="fil11" d="M402 458l0 2c0,0 1,0 1,0l0 -2c0,0 -1,0 -1,0z"/>
      <path class="fil11" d="M403 458l0 2c1,0 1,0 1,0l0 -2c0,0 0,0 -1,0z"/>
      <path class="fil11" d="M404 458l0 2c1,0 2,0 3,0l0 -1c-1,0 -2,-1 -3,-1z"/>
      <path class="fil11" d="M407 459l0 1c0,1 1,1 2,2l0 -2c-1,-1 -2,-1 -2,-1z"/>
     </g>
     <g>
      <path class="fil16" d="M390 464l0 2c0,0 0,0 0,0 0,-2 1,-3 3,-4 2,-2 5,-2 8,-2 3,0 6,0 8,2l0 -2c-2,-1 -5,-2 -8,-2 -3,0 -6,1 -8,2 -2,1 -3,3 -3,4 0,0 0,0 0,0z"/>
     </g>
     <g>
      <path class="fil16" d="M386 464l0 2c0,0 0,0 0,0l0 -1c0,0 0,0 0,-1z"/>
      <path class="fil16" d="M386 465l0 1c0,1 0,1 0,1l0 -2c0,0 0,0 0,0z"/>
      <path class="fil16" d="M386 465l0 2c0,0 0,1 0,1l0 -2c0,0 0,0 0,-1z"/>
      <path class="fil16" d="M386 466l0 2c0,0 0,1 0,1l0 -2c0,0 0,0 0,-1z"/>
      <path class="fil16" d="M386 467l0 2c1,0 1,1 1,1l0 -2c0,0 0,0 -1,-1z"/>
      <path class="fil16" d="M387 468l0 2c0,0 1,1 1,1l0 -2c0,0 -1,-1 -1,-1z"/>
      <path class="fil16" d="M388 469l0 2c1,0 1,1 2,1l0 -1c-1,-1 -1,-1 -2,-2z"/>
      <path class="fil16" d="M390 471l0 1c0,0 0,0 0,0l0 -1c0,0 0,0 0,0z"/>
     </g>
     <g>
      <path class="fil16" d="M386 464l0 2c0,2 1,5 4,6l0 -1c-3,-2 -4,-4 -4,-7z"/>
     </g>
     <g>
      <path class="fil16" d="M409 471l0 2c0,0 0,0 0,0 0,-1 1,-1 1,-1 1,0 1,-1 1,-1l0 -1c0,0 0,0 -1,0 0,0 -1,1 -1,1 0,0 0,0 0,0z"/>
      <path class="fil16" d="M411 470l0 1c0,0 0,0 0,0l0 -1c0,0 0,0 0,0z"/>
      <path class="fil16" d="M411 470l0 1c0,0 1,0 1,0l0 -2c0,0 -1,0 -1,1z"/>
      <path class="fil16" d="M412 469l0 2c0,0 0,0 0,0l0 -2c0,0 0,0 0,0z"/>
      <path class="fil16" d="M412 469l0 2c0,0 0,0 0,0l0 -2c0,0 0,0 0,0z"/>
      <path class="fil16" d="M412 469l0 2c0,0 1,0 1,0l0 -2c0,0 -1,0 -1,0z"/>
      <path class="fil16" d="M413 469l0 2c0,0 0,0 0,0l0 -2c0,0 0,0 0,0z"/>
      <path class="fil16" d="M413 469l0 2c0,0 0,0 0,0l0 -2c0,0 0,0 0,0z"/>
      <path class="fil16" d="M413 469l0 2c1,0 1,0 1,0l0 -2c0,0 0,0 -1,0z"/>
      <path class="fil16" d="M414 469l0 2c0,0 0,0 1,0l0 -1c-1,0 -1,-1 -1,-1z"/>
      <path class="fil16" d="M415 470l0 1c0,0 0,0 0,1l0 -2c0,0 0,0 0,0z"/>
     </g>
     <g>
      <path class="fil16" d="M409 471l0 2c0,0 0,0 0,0 0,-1 1,-1 1,-1 2,-1 4,-1 5,0l0 -2c-1,-1 -3,-1 -5,0 0,0 -1,1 -1,1 0,0 0,0 0,0z"/>
     </g>
     <g>
      <path class="fil16" d="M405 471l0 2c0,0 0,0 0,0l0 -2c0,0 0,0 0,0z"/>
      <path class="fil16" d="M405 471l0 2c0,0 0,0 0,1l0 -2c0,0 0,0 0,-1z"/>
      <path class="fil16" d="M405 472l0 2c0,0 0,0 0,0l0 -2c0,0 0,0 0,0z"/>
      <path class="fil16" d="M405 472l0 2c0,0 0,0 0,0l0 -1c0,0 0,0 0,-1z"/>
      <path class="fil16" d="M405 473l0 1c0,1 1,1 1,1l0 -2c0,0 -1,0 -1,0z"/>
      <path class="fil16" d="M406 473l0 2c0,0 0,0 0,1l0 -2c0,0 0,-1 0,-1z"/>
      <path class="fil16" d="M406 474l0 2c0,0 1,0 1,0l0 -1c0,-1 -1,-1 -1,-1z"/>
      <path class="fil16" d="M407 475l0 1c0,0 0,0 0,0l0 -1c0,0 0,0 0,0z"/>
     </g>
     <g>
      <path class="fil16" d="M405 471l0 2c0,1 1,2 2,3l0 -1c-1,-1 -2,-2 -2,-4z"/>
     </g>
     <g>
      <g>
       <polygon class="fil16" points="415,470 415,472 432,481 432,480 "/>
      </g>
      <path class="fil16" d="M432 480l0 1c0,0 0,0 0,1l0 -2c0,0 0,0 0,0z"/>
      <path class="fil16" d="M432 480l0 2c0,0 1,0 1,0l0 -2c0,0 -1,0 -1,0z"/>
      <path class="fil16" d="M433 480l0 2c0,0 0,0 0,0l0 -2c0,0 0,0 0,0z"/>
      <path class="fil16" d="M433 480l0 2c0,0 0,0 0,0l0 -2c0,0 0,0 0,0z"/>
      <path class="fil16" d="M433 480l0 2c0,0 0,0 0,0l0 -2c0,0 0,0 0,0z"/>
      <path class="fil16" d="M433 480l0 2c1,0 1,0 1,0l0 -2c0,0 0,0 -1,0z"/>
      <path class="fil16" d="M434 480l0 2c0,0 0,0 0,0l0 -2c0,0 0,0 0,0z"/>
      <path class="fil16" d="M434 480l0 2c0,0 0,0 0,0l0 -2c0,0 0,0 0,0z"/>
      <path class="fil16" d="M434 480l0 2c0,0 0,0 0,0l0 -2c0,0 0,0 0,0z"/>
      <path class="fil16" d="M434 480l0 2c0,0 1,-1 1,-1l0 -1c0,0 -1,0 -1,0z"/>
      <path class="fil16" d="M435 480l0 1c0,0 0,0 0,0 0,0 1,0 1,-1l0 -1c0,0 -1,0 -1,1 0,0 0,0 0,0z"/>
     </g>
     <g>
      <path class="fil16" d="M436 480l0 -1c0,0 -1,0 -1,1 -1,0 -2,0 -3,0l0 1c1,1 2,1 3,0 0,0 1,0 1,-1z"/>
     </g>
     <g>
      <g>
       <polygon class="fil16" points="409,460 409,462 445,483 445,481 "/>
      </g>
      <path class="fil16" d="M445 481l0 2c0,0 0,0 0,0l0 -2c0,0 0,0 0,0z"/>
      <path class="fil16" d="M445 481l0 2c0,0 1,0 1,0l0 -1c0,0 -1,-1 -1,-1z"/>
      <path class="fil16" d="M446 482l0 1c0,1 0,1 0,1l0 -2c0,0 0,0 0,0z"/>
      <path class="fil16" d="M446 482l0 2c0,0 0,0 1,0l0 -1c-1,0 -1,-1 -1,-1z"/>
      <path class="fil16" d="M447 483l0 1c0,0 0,1 0,1l0 -2c0,0 0,0 0,0z"/>
      <path class="fil16" d="M447 483l0 2c0,0 0,0 0,0l0 -1c0,-1 0,-1 0,-1z"/>
      <path class="fil16" d="M447 484l0 1c0,0 0,0 0,1l0 -2c0,0 0,0 0,0z"/>
      <path class="fil16" d="M447 484l0 2c0,0 0,0 0,0l0 -2c0,0 0,0 0,0z"/>
     </g>
     <g>
      <path class="fil16" d="M447 486l0 -2c0,-1 -1,-2 -2,-3l0 2c1,1 2,2 2,3z"/>
     </g>
     <g>
      <g>
       <polygon class="fil16" points="390,471 390,472 418,489 418,487 "/>
      </g>
      <path class="fil16" d="M418 487l0 2c0,0 1,0 1,0l0 -1c0,-1 -1,-1 -1,-1z"/>
      <path class="fil16" d="M419 488l0 1c0,0 0,0 0,0l0 -1c0,0 0,0 0,0z"/>
      <path class="fil16" d="M419 488l0 1c0,0 0,0 0,0l0 -1c0,0 0,0 0,0z"/>
      <path class="fil16" d="M419 488l0 1c1,0 1,0 1,0l0 -1c0,0 0,0 -1,0z"/>
      <path class="fil16" d="M420 488l0 1c0,0 0,0 0,0l0 -1c0,0 0,0 0,0z"/>
      <path class="fil16" d="M420 488l0 1c0,0 0,0 0,0l0 -1c0,0 0,0 0,0z"/>
      <path class="fil16" d="M420 488l0 1c0,0 0,0 0,0l0 -1c0,0 0,0 0,0z"/>
      <path class="fil16" d="M420 488l0 1c0,0 0,0 1,0l0 -1c-1,0 -1,0 -1,0z"/>
      <path class="fil16" d="M421 488l0 1c0,0 0,0 0,0l0 -1c0,0 0,0 0,0z"/>
      <path class="fil16" d="M421 488l0 1c0,0 0,0 0,0l0 -2c0,1 0,1 0,1z"/>
      <path class="fil16" d="M421 487l0 2c0,0 0,0 0,0 1,0 1,-1 1,-1l0 -2c0,1 0,1 -1,1 0,0 0,0 0,0z"/>
     </g>
     <g>
      <path class="fil16" d="M422 488l0 -2c0,1 0,1 -1,1 0,1 -2,1 -3,0l0 2c1,0 3,1 3,0 1,0 1,-1 1,-1z"/>
     </g>
     <g>
      <g>
       <polygon class="fil16" points="407,475 407,476 431,490 431,489 "/>
      </g>
      <path class="fil16" d="M431 489l0 1c1,1 2,1 3,2l0 -2c-1,0 -2,-1 -3,-1z"/>
      <path class="fil16" d="M434 490l0 2c1,0 1,0 2,0l0 -2c-1,0 -1,0 -2,0z"/>
      <path class="fil16" d="M436 490l0 2c1,0 1,0 2,0l0 -1c-1,0 -1,0 -2,-1z"/>
      <path class="fil16" d="M438 491l0 1c0,0 0,0 1,0l0 -1c-1,0 -1,0 -1,0z"/>
      <path class="fil16" d="M439 491l0 1c0,0 0,0 0,0 1,0 1,0 1,0l0 -1c0,0 0,0 -1,0 0,0 0,0 0,0z"/>
      <path class="fil16" d="M440 491l0 1c0,0 1,0 1,0l0 -1c0,0 -1,0 -1,0z"/>
      <path class="fil16" d="M441 491l0 1c1,0 1,0 1,0l0 -1c0,0 0,0 -1,0z"/>
      <path class="fil16" d="M442 491l0 1c1,0 1,0 2,0l0 -2c-1,0 -1,1 -2,1z"/>
      <path class="fil16" d="M444 490l0 2c0,0 0,0 1,0l0 -2c-1,0 -1,0 -1,0z"/>
      <path class="fil16" d="M445 490l0 2c0,0 1,-1 1,-1l0 -1c0,0 -1,0 -1,0z"/>
      <path class="fil16" d="M446 490l0 1c1,0 1,0 2,0 2,-2 3,-4 3,-5l0 -2c0,2 -1,3 -3,5 -1,0 -1,0 -2,1z"/>
     </g>
     <g>
      <path class="fil16" d="M451 486l0 -2c0,2 -1,3 -3,5 -2,1 -5,2 -9,2 -3,0 -6,-1 -8,-2l0 1c2,2 5,2 8,2 4,0 7,0 9,-1 2,-2 3,-4 3,-5z"/>
     </g>
    </g>
    <g>
     <path class="fil18" d="M390 458c-3,2 -4,4 -4,6 0,3 1,5 4,7l28 16c1,1 3,1 3,0 1,0 1,-1 0,-1l-28 -17c-2,-1 -3,-3 -3,-5 0,-1 1,-3 3,-4 2,-1 5,-2 8,-2 3,0 6,1 8,2l36 21c3,2 3,4 0,6 -3,2 -8,2 -11,0l-24 -14c0,-1 -1,-1 -1,-2 0,0 1,-1 1,-1 2,-1 4,-1 5,0l17 10c1,0 2,0 3,0 1,-1 1,-2 0,-2l-16 -10c-4,-2 -9,-2 -12,0 -1,1 -2,2 -2,3 0,2 1,3 2,4l24 14c2,1 5,2 8,2 4,0 7,-1 9,-2 4,-3 4,-7 0,-10l-36 -21c-3,-2 -7,-3 -11,-3 -4,0 -8,1 -11,3z"/>
    </g>
   </g>
   <g>
    <g>
     <g>
      <path class="fil18" d="M375 252l0 1c0,0 0,0 0,0 0,-1 0,-2 1,-3 1,0 1,0 1,0l0 -1c0,0 0,0 -1,0 -1,1 -1,2 -1,3 0,0 0,0 0,0z"/>
      <path class="fil18" d="M377 249l0 1c1,0 1,0 1,0l0 -1c0,0 0,0 -1,0z"/>
      <path class="fil18" d="M378 249l0 1c0,0 1,-1 1,-1l0 -1c0,1 -1,1 -1,1z"/>
      <path class="fil18" d="M379 248l0 1c0,0 0,0 0,0l0 -1c0,0 0,0 0,0z"/>
      <path class="fil18" d="M379 248l0 1c1,0 1,0 1,0l0 -1c0,0 0,0 -1,0z"/>
      <path class="fil18" d="M380 248l0 1c0,0 0,0 1,0l0 -1c-1,0 -1,0 -1,0z"/>
      <path class="fil18" d="M381 248l0 1c0,0 0,0 0,0 0,0 0,0 0,0l0 -1c0,0 0,0 0,0 0,0 0,0 0,0z"/>
      <path class="fil18" d="M381 248l0 1c0,0 1,0 1,0l0 -1c0,0 -1,0 -1,0z"/>
      <path class="fil18" d="M382 248l0 1c0,0 0,0 1,0l0 -1c-1,0 -1,0 -1,0z"/>
      <path class="fil18" d="M383 248l0 1c0,0 1,1 1,1l0 -1c0,0 -1,0 -1,-1z"/>
      <path class="fil18" d="M384 249l0 1c0,0 1,0 1,0l0 -1c0,0 -1,0 -1,0z"/>
     </g>
     <g>
      <path class="fil16" d="M375 252l0 1c0,0 0,0 0,0 0,-1 0,-2 1,-3 2,0 3,-1 5,-1 2,0 3,1 4,1l0 -1c-1,0 -2,-1 -4,-1 -2,0 -3,1 -5,1 -1,1 -1,2 -1,3 0,0 0,0 0,0z"/>
     </g>
     <g>
      <path class="fil16" d="M372 252l0 1c0,0 0,0 0,0l0 -1c0,0 0,0 0,0z"/>
      <path class="fil16" d="M372 252l0 1c0,0 0,0 0,1l0 -1c0,-1 0,-1 0,-1z"/>
      <path class="fil16" d="M372 253l0 1c0,0 0,0 0,0l0 -1c0,0 0,0 0,0z"/>
      <path class="fil16" d="M372 253l0 1c0,0 0,0 0,1l0 -1c0,-1 0,-1 0,-1z"/>
      <path class="fil16" d="M372 254l0 1c1,0 1,0 1,0l0 -1c0,0 0,0 -1,0z"/>
      <path class="fil16" d="M373 254l0 1c0,0 0,0 0,1l0 -1c0,-1 0,-1 0,-1z"/>
      <path class="fil16" d="M373 255l0 1c1,0 1,0 1,0l0 -1c0,0 0,0 -1,0z"/>
      <path class="fil16" d="M374 255l0 1c0,0 1,0 1,0l0 0c0,0 -1,-1 -1,-1z"/>
     </g>
     <g>
      <path class="fil16" d="M372 252l0 1c0,1 1,3 3,3l0 0c-2,-1 -3,-3 -3,-4z"/>
     </g>
     <g>
      <path class="fil16" d="M386 256l0 1c0,0 0,0 0,0 0,0 0,-1 0,-1 0,0 0,0 0,0l0 -1c0,0 0,0 0,0 0,0 0,1 0,1 0,0 0,0 0,0z"/>
      <path class="fil16" d="M386 255l0 1c0,0 1,0 1,0l0 -1c0,0 -1,0 -1,0z"/>
      <path class="fil16" d="M387 255l0 1c0,0 0,0 0,0l0 -1c0,0 0,0 0,0z"/>
      <path class="fil16" d="M387 255l0 1c0,0 0,0 0,0l0 -1c0,0 0,0 0,0z"/>
      <path class="fil16" d="M387 255l0 1c0,0 0,0 0,0l0 -1c0,0 0,0 0,0z"/>
      <path class="fil16" d="M387 255l0 1c0,0 0,0 0,0l0 -1c0,0 0,0 0,0z"/>
      <path class="fil16" d="M387 255l0 1c1,0 1,0 1,0l0 -1c0,0 0,0 -1,0z"/>
      <path class="fil16" d="M388 255l0 1c0,0 0,0 0,0l0 -1c0,0 0,0 0,0z"/>
      <path class="fil16" d="M388 255l0 1c0,0 0,0 0,0l0 -1c0,0 0,0 0,0z"/>
      <path class="fil16" d="M388 255l0 1c0,0 0,0 1,0l0 -1c-1,0 -1,0 -1,0z"/>
      <path class="fil16" d="M389 255l0 1c0,0 0,0 0,0l0 -1c0,0 0,0 0,0z"/>
     </g>
     <g>
      <path class="fil16" d="M386 256l0 1c0,0 0,0 0,0 0,0 0,-1 0,-1 1,0 2,0 3,0l0 -1c-1,0 -2,0 -3,0 0,0 0,1 0,1 0,0 0,0 0,0z"/>
     </g>
     <g>
      <path class="fil16" d="M383 256l0 1c0,0 0,0 0,0l0 -1c0,0 0,0 0,0z"/>
      <path class="fil16" d="M383 256l0 1c0,0 0,0 0,0l0 -1c0,0 0,0 0,0z"/>
      <path class="fil16" d="M383 256l0 1c0,0 0,0 0,0l0 -1c0,0 0,0 0,0z"/>
      <path class="fil16" d="M383 256l0 1c0,1 0,1 0,1l0 -1c0,0 0,0 0,-1z"/>
      <path class="fil16" d="M383 257l0 1c0,0 0,0 0,0l0 -1c0,0 0,0 0,0z"/>
      <path class="fil16" d="M383 257l0 1c1,0 1,0 1,0l0 -1c0,0 0,0 -1,0z"/>
      <path class="fil16" d="M384 257l0 1c0,0 0,1 0,1l0 -1c0,0 0,-1 0,-1z"/>
      <path class="fil16" d="M384 258l0 1c0,0 0,0 0,0l0 -1c0,0 0,0 0,0z"/>
     </g>
     <g>
      <path class="fil16" d="M383 256l0 1c0,1 0,1 1,2l0 -1c-1,-1 -1,-1 -1,-2z"/>
     </g>
     <g>
      <g>
       <polygon class="fil16" points="389,255 389,256 398,262 398,261 "/>
      </g>
      <path class="fil16" d="M398 261l0 1c0,0 1,0 1,0l0 -1c0,0 -1,0 -1,0z"/>
      <path class="fil16" d="M399 261l0 1c0,0 0,0 0,0l0 -1c0,0 0,0 0,0z"/>
      <path class="fil16" d="M399 261l0 1c0,0 0,0 0,0l0 -1c0,0 0,0 0,0z"/>
      <path class="fil16" d="M399 261l0 1c0,0 0,0 0,0l0 -1c0,0 0,0 0,0z"/>
      <path class="fil16" d="M399 261l0 1c0,0 0,0 0,0l0 -1c0,0 0,0 0,0z"/>
      <path class="fil16" d="M399 261l0 1c0,0 0,0 0,0l0 -1c0,0 0,0 0,0z"/>
      <path class="fil16" d="M399 261l0 1c0,0 1,0 1,0l0 -1c0,0 -1,0 -1,0z"/>
      <path class="fil16" d="M400 261l0 1c0,0 0,0 0,0l0 -1c0,0 0,0 0,0z"/>
      <path class="fil16" d="M400 261l0 1c0,0 0,0 0,0l0 -1c0,0 0,0 0,0z"/>
      <path class="fil16" d="M400 261l0 1c0,0 0,0 0,0l0 -1c0,0 0,0 0,0z"/>
      <path class="fil16" d="M400 261l0 1c0,0 0,0 0,0 0,-1 1,-1 1,-1l0 -1c0,0 -1,0 -1,1 0,0 0,0 0,0z"/>
     </g>
     <g>
      <path class="fil16" d="M401 261l0 -1c0,0 -1,0 -1,1 0,0 -1,0 -2,0l0 1c1,0 2,0 2,0 0,-1 1,-1 1,-1z"/>
     </g>
     <g>
      <g>
       <polygon class="fil16" points="385,249 385,250 406,262 406,261 "/>
      </g>
      <path class="fil16" d="M406 261l0 1c0,0 0,0 0,0l0 -1c0,0 0,0 0,0z"/>
      <path class="fil16" d="M406 261l0 1c0,1 0,1 0,1l0 -1c0,0 0,0 0,-1z"/>
      <path class="fil16" d="M406 262l0 1c0,0 1,0 1,0l0 -1c0,0 -1,0 -1,0z"/>
      <path class="fil16" d="M407 262l0 1c0,0 0,0 0,0l0 -1c0,0 0,0 0,0z"/>
      <path class="fil16" d="M407 262l0 1c0,0 0,0 0,1l0 -1c0,0 0,-1 0,-1z"/>
      <path class="fil16" d="M407 263l0 1c0,0 0,0 0,0l0 -1c0,0 0,0 0,0z"/>
      <path class="fil16" d="M407 263l0 1c0,0 0,0 0,0l0 -1c0,0 0,0 0,0z"/>
      <path class="fil16" d="M407 263l0 1c0,0 0,0 0,0l0 -1c0,0 0,0 0,0z"/>
     </g>
     <g>
      <path class="fil16" d="M407 264l0 -1c0,0 0,-1 -1,-2l0 1c1,1 1,1 1,2z"/>
     </g>
     <g>
      <g>
       <polygon class="fil16" points="375,256 375,256 391,266 391,265 "/>
      </g>
      <path class="fil16" d="M391 265l0 1c0,0 0,0 0,0l0 -1c0,0 0,0 0,0z"/>
      <path class="fil16" d="M391 265l0 1c0,0 0,0 0,0l0 -1c0,0 0,0 0,0z"/>
      <path class="fil16" d="M391 265l0 1c0,0 0,0 0,0l0 -1c0,0 0,0 0,0z"/>
      <path class="fil16" d="M391 265l0 1c0,0 0,0 0,0l0 -1c0,0 0,0 0,0z"/>
      <path class="fil16" d="M391 265l0 1c0,0 1,0 1,0l0 -1c0,0 -1,0 -1,0z"/>
      <path class="fil16" d="M392 265l0 1c0,0 0,0 0,0l0 -1c0,0 0,0 0,0z"/>
      <path class="fil16" d="M392 265l0 1c0,0 0,0 0,0l0 -1c0,0 0,0 0,0z"/>
      <path class="fil16" d="M392 265l0 1c0,0 0,0 0,0l0 -1c0,0 0,0 0,0z"/>
      <path class="fil16" d="M392 265l0 1c0,0 0,0 0,0l0 -1c0,0 0,0 0,0z"/>
      <path class="fil16" d="M392 265l0 1c0,0 0,0 0,0l0 -1c0,0 0,0 0,0z"/>
      <path class="fil16" d="M392 265l0 1c0,0 0,0 0,0 1,0 1,0 1,-1l0 0c0,0 0,0 -1,0 0,0 0,0 0,0z"/>
     </g>
     <g>
      <path class="fil16" d="M393 265l0 0c0,0 0,0 -1,0 0,0 -1,0 -1,0l0 1c0,0 1,0 1,0 1,0 1,0 1,-1z"/>
     </g>
     <g>
      <g>
       <polygon class="fil16" points="384,258 384,259 398,267 398,266 "/>
      </g>
      <path class="fil16" d="M398 266l0 1c1,0 1,0 2,0l0 0c-1,-1 -1,-1 -2,-1z"/>
      <path class="fil16" d="M400 267l0 0c0,1 0,1 1,1l0 -1c-1,0 -1,0 -1,0z"/>
      <path class="fil16" d="M401 267l0 1c0,0 0,0 1,0l0 -1c-1,0 -1,0 -1,0z"/>
      <path class="fil16" d="M402 267l0 1c0,0 0,0 0,0l0 -1c0,0 0,0 0,0z"/>
      <path class="fil16" d="M402 267l0 1c1,0 1,0 1,0 0,0 0,0 0,0l0 -1c0,0 0,0 0,0 0,0 0,0 -1,0z"/>
      <path class="fil16" d="M403 267l0 1c0,0 1,0 1,0l0 -1c0,0 -1,0 -1,0z"/>
      <path class="fil16" d="M404 267l0 1c0,0 0,0 0,0l0 -1c0,0 0,0 0,0z"/>
      <path class="fil16" d="M404 267l0 1c1,0 1,0 1,0l0 -1c0,0 0,0 -1,0z"/>
      <path class="fil16" d="M405 267l0 1c0,0 1,0 1,0l0 -1c0,0 -1,0 -1,0z"/>
      <path class="fil16" d="M406 267l0 1c0,-1 0,-1 1,-1l0 -1c-1,0 -1,1 -1,1z"/>
      <path class="fil16" d="M407 266l0 1c0,0 0,0 1,0 1,-1 2,-2 2,-3l0 -1c0,1 -1,2 -2,3 -1,0 -1,0 -1,0z"/>
     </g>
     <g>
      <path class="fil16" d="M410 264l0 -1c0,1 -1,2 -2,3 -2,1 -3,1 -5,1 -2,0 -4,0 -5,-1l0 1c1,1 3,1 5,1 2,0 3,0 5,-1 1,-1 2,-2 2,-3z"/>
     </g>
    </g>
    <g>
     <path class="fil18" d="M375 248c-2,1 -3,3 -3,4 0,1 1,3 3,4l16 9c0,0 1,0 1,0 1,0 1,-1 0,-1l-16 -9c-1,-1 -2,-2 -1,-3 0,-1 0,-2 1,-3 2,0 3,-1 5,-1 2,0 3,1 4,1l21 12c1,1 1,3 0,4 -2,1 -5,1 -6,0l-14 -8c0,0 0,-1 0,-1 0,0 0,-1 0,-1 1,0 2,0 3,0l9 6c1,0 2,0 2,0 1,-1 1,-1 0,-1l-9 -6c-2,-1 -5,-1 -7,0 0,1 -1,1 -1,2 0,1 0,1 1,2l14 8c1,1 3,1 5,1 2,0 3,0 5,-1 2,-2 2,-4 0,-6l-21 -12c-2,-1 -4,-1 -6,-1 -2,0 -5,0 -6,1z"/>
    </g>
   </g>
   <path class="fil1" d="M755 289c0,11 -17,20 -38,20 -21,0 -37,-9 -37,-20 0,-10 16,-19 37,-19 21,0 38,9 38,19z"/>
   <g>
    <path class="fil15" d="M255 356l-8 0c-2,0 -3,2 -2,4 0,0 0,0 0,0 0,0 7,3 12,4 2,1 4,-1 4,-3l-1 -2 -5 -3z"/>
    <g>
     <path class="fil14" d="M256 363c-3,0 -6,-2 -6,-6l-4 -37c0,-1 0,-1 0,-2l3 -25c0,-3 4,-5 7,-5 3,1 6,4 5,7l-3 24 4 37c0,3 -2,6 -6,7 0,0 0,0 0,0z"/>
    </g>
    <path class="fil14" d="M234 287c0,9 -2,36 -2,39 1,4 14,-20 15,-25 5,0 14,-6 14,-6 0,0 1,-6 0,-10 -5,-1 -10,-2 -15,-3 -4,0 -9,2 -12,5z"/>
    <path class="fil17" d="M234 234c0,6 5,11 11,11 6,0 11,-5 11,-11 0,-6 -5,-11 -11,-11 -6,0 -11,5 -11,11z"/>
    <path class="fil4" d="M262 258c0,0 5,-12 0,-15 -4,-1 -8,2 -8,2 0,0 -10,6 -17,9 -3,2 -1,10 -1,18 1,7 -2,15 -2,15 0,0 11,5 16,4 5,0 12,-3 11,-5 0,-3 -4,-12 -2,-16 1,-3 3,-12 3,-12z"/>
    <path class="fil19" d="M237 254c2,-1 4,-2 6,-3 2,1 3,1 3,1l1 11c0,0 -1,18 -2,28 -5,-1 -11,-4 -11,-4 0,0 3,-8 3,-16 -1,-8 -3,-15 0,-17z"/>
    <path class="fil17" d="M205 258c0,3 2,5 5,5 2,0 4,-2 4,-5 0,-2 -2,-4 -4,-4 -3,0 -5,2 -5,4z"/>
    <path class="fil15" d="M235 365l-8 0c-2,0 -3,2 -2,4 0,0 0,0 0,0 0,1 8,3 12,4 2,1 4,-1 4,-3l-1 -2 -5 -3z"/>
    <path class="fil4" d="M249 248l-12 6c0,0 -3,1 -6,9 -4,8 -8,16 -10,17 -3,0 -9,-17 -11,-18 -1,-1 -4,-3 -3,1 0,5 3,26 8,28 4,2 35,-23 36,-29 0,-7 -2,-14 -2,-14z"/>
    <path class="fil17" d="M211 261c1,1 7,19 10,19 0,-1 0,-1 0,-1 0,0 0,0 0,0 0,0 0,0 0,0 0,0 0,0 1,0 0,0 0,0 0,-1 0,0 0,0 0,0 0,0 0,0 1,0 0,0 0,0 0,0 0,0 0,-1 0,-1 0,0 0,0 0,0 1,0 1,-1 1,-1 0,0 0,0 0,0 0,0 0,0 0,0 1,-1 1,-2 2,-3 0,0 0,0 0,0 0,-1 1,-2 2,-3 0,0 0,0 0,0 1,2 4,6 8,8 -9,8 -19,14 -21,13 -5,-2 -8,-23 -8,-28 -1,-4 2,-3 4,-2z"/>
    <path class="fil17" d="M252 236l2 12c-1,3 -4,4 -7,4l-1 0 -3 -12 9 -4z"/>
    <path class="fil14" d="M238 237c0,-2 2,-3 4,-2 0,1 1,2 0,3 0,1 -1,2 -1,3 3,2 7,4 11,6 1,-3 3,-5 4,-7 1,-1 2,-3 2,-4 1,-3 0,-8 -2,-10 -3,-3 -6,-4 -10,-5 -4,0 -7,2 -9,5 -3,3 0,7 1,11z"/>
    <g>
     <path class="fil14" d="M237 370c-3,0 -6,-2 -6,-6l0 -38c0,0 0,0 0,-1l5 -29c0,-3 3,-5 7,-5 3,1 5,4 5,7l-5 29 0 37c0,4 -3,6 -6,6 0,0 0,0 0,0z"/>
    </g>
    <path class="fil14" d="M258 245c5,5 7,12 6,18 0,2 -1,4 -3,5 -2,3 -7,3 -10,0 -2,-2 -2,-6 -2,-9 0,-3 1,-6 1,-10 0,-1 0,-3 0,-5 1,-1 2,-4 4,-3 0,1 1,2 1,2 1,1 2,2 3,2z"/>
    <path class="fil8" d="M251 244c-1,0 -1,0 -2,1 0,0 0,1 0,1 0,0 1,0 1,0 1,1 3,0 5,-1 0,0 2,-3 1,-3 -2,-1 -4,1 -5,2z"/>
   </g>
   <g>
    <path class="fil14" d="M312 448c0,0 -2,4 -2,6 0,3 1,3 1,3 0,0 5,2 6,2 1,0 6,3 9,3 3,1 7,2 8,-1 0,-2 -16,-12 -16,-12l-6 -1z"/>
    <path class="fil14" d="M295 450c0,0 0,2 2,2 2,0 4,-2 4,-2l-1 8c0,0 -1,12 -4,13 -4,2 -5,-5 -5,-5l4 -16z"/>
    <path class="fil11" d="M330 357l1 22 -29 11 -1 -13c0,0 -5,-6 -3,-6 1,-1 26,-17 26,-17l6 3z"/>
    <path class="fil15" d="M330 324l3 4c0,0 11,30 10,33 0,3 -3,4 -5,4 -2,-1 -10,-20 -10,-20l2 -21z"/>
    <g>
     <path class="fil11" d="M315 449c0,0 -1,0 -1,0 -3,-1 -5,-4 -5,-7l9 -38 1 -38c0,-3 2,-6 6,-6 0,0 0,0 0,0 3,0 6,3 6,6l-1 39c0,1 0,1 0,2l-9 38c-1,3 -3,4 -6,4z"/>
    </g>
    <path class="fil14" d="M311 325c0,0 11,-3 16,-2 5,1 6,4 6,5 1,2 -1,39 -1,39 0,0 -20,16 -28,12 -6,-3 -7,-7 -6,-8 0,-1 0,-2 0,-3l5 -36 8 -7z"/>
    <path class="fil17" d="M334 317c-2,6 -9,9 -14,7 -6,-2 -9,-9 -7,-14 2,-6 8,-9 14,-7 5,2 9,8 7,14z"/>
    <path class="fil17" d="M326 316l-4 12c-2,2 -6,2 -8,0 -1,0 -1,-1 -1,-1l3 -12 10 1z"/>
    <g>
     <path class="fil11" d="M298 454c0,0 -1,0 -1,0 -4,-1 -6,-4 -5,-8l6 -28 5 -45c0,-3 3,-5 7,-5 3,0 6,3 5,7l-5 44c0,0 0,1 0,1l-6 29c-1,3 -3,5 -6,5z"/>
    </g>
    <path class="fil14" d="M332 314c1,0 2,0 2,-1 0,0 0,0 0,0 0,-4 -3,-9 -7,-10 -6,-2 -12,1 -14,7 -1,0 -1,1 -1,1 1,0 1,1 2,1 1,0 5,-2 4,-3 0,0 1,1 1,2 1,0 1,-1 1,-2 3,3 8,5 12,5z"/>
    <path class="fil15" d="M342 367c-3,0 -5,-3 -5,-6 0,-3 2,-5 5,-5 3,0 6,2 6,5 0,3 -3,6 -6,6z"/>
    <path class="fil17" d="M317 312c-1,1 -3,2 -4,2 -2,-1 -3,-3 -2,-5 0,-1 2,-2 4,-2 2,1 3,3 2,5z"/>
    <path class="fil17" d="M353 361c0,2 -2,4 -4,4 -2,0 -4,-2 -4,-4 0,-3 2,-4 4,-4 2,0 4,1 4,4z"/>
    <path class="fil15" d="M298 371c0,0 0,0 0,0 0,0 0,0 0,0 0,1 0,1 0,1 0,0 0,0 0,0 0,2 1,3 3,5 0,0 0,0 0,0 2,1 3,2 5,2 7,1 17,-6 23,-10 -1,-1 -2,-3 -2,-3l-20 -9 -5 -24 0 -1 1 0 -5 36c0,1 0,2 0,3z"/>
    <path class="fil14" d="M303 347c0,0 11,-21 8,-22 0,0 -9,2 -11,6 -2,5 -13,32 -13,35 1,4 4,5 14,8 9,2 15,3 15,3l1 -4 -17 -11 3 -15z"/>
    <path class="fil7" d="M360 360l-20 1c0,0 -7,5 -7,8 0,3 6,3 6,3l12 7 9 -19z"/>
    <path class="fil6" d="M329 369l8 0c4,1 8,3 10,6l4 4 -33 -4c0,0 3,-8 11,-6z"/>
    <path class="fil6" d="M345 373c0,0 0,-2 2,-5 3,-4 9,-8 12,-8l-19 1c0,0 -9,4 -7,8 2,4 6,3 6,3l6 1z"/>
    <g>
     <path class="fil8" d="M351 380l-37 -4c0,0 -1,-1 -1,-1 0,-1 1,-1 1,-1l36 4 11 -20c0,0 1,0 1,0 1,0 1,1 1,1l-12 21z"/>
    </g>
    <path class="fil17" d="M319 374c0,2 -2,4 -4,4 -3,0 -4,-2 -4,-4 0,-3 1,-4 4,-4 2,0 4,1 4,4z"/>
    <path class="fil7" d="M350 378c0,0 -3,-8 -12,-7 -9,2 -11,5 -11,5l23 2z"/>
   </g>
   <g>
    <path class="fil14" d="M515 172c0,0 -2,2 -2,4 -1,2 0,2 0,2 0,0 3,2 4,2 1,0 3,4 5,4 2,1 5,2 5,1 1,-2 -8,-11 -8,-11l-4 -2z"/>
    <path class="fil14" d="M485 169c0,0 0,2 2,2 2,0 3,-2 3,-2l0 7c0,0 -1,9 -4,10 -3,1 -4,-4 -4,-4l3 -13z"/>
    <path class="fil4" d="M493 106l0 18 -10 11 -9 -3c-3,-1 -4,-3 -4,-5l0 -4c0,0 -5,-5 -4,-5 2,-1 22,-14 22,-14l5 2z"/>
    <g>
     <path class="fil4" d="M488 172c-1,0 -2,0 -3,0 -2,-2 -3,-5 -2,-8 2,-3 7,-13 7,-20 0,-3 -9,-9 -16,-12 -3,-1 -4,-4 -3,-7 1,-3 4,-4 7,-3 4,2 22,10 22,21 1,12 -7,25 -7,27 -1,1 -3,2 -5,2z"/>
    </g>
    <g>
     <path class="fil4" d="M517 176c-2,0 -5,-2 -5,-5 0,-6 -2,-25 -6,-32 -1,-4 -11,-9 -17,-11 -2,-1 -4,-4 -3,-6 1,-3 4,-5 7,-4 3,1 19,7 23,17 5,10 6,33 7,35 0,3 -2,6 -5,6 0,0 -1,0 -1,0z"/>
    </g>
    <path class="fil10" d="M494 80l5 3c0,0 5,12 12,19 8,7 20,10 20,11 -1,3 1,5 -2,5 -2,-1 -13,-2 -22,-7 -9,-5 -16,-13 -16,-13l3 -18z"/>
    <path class="fil11" d="M479 86c4,-3 9,-5 14,-6 2,0 3,0 4,0 3,1 4,3 4,5 1,1 -7,33 -7,33 0,0 -16,9 -22,6 -5,-2 -5,-5 -5,-6 1,-1 1,-2 1,-3l8 -27 3 -2z"/>
    <path class="fil6" d="M488 82c0,0 -5,1 -5,2 -1,2 3,6 7,5 5,0 9,-4 7,-6 -1,-1 -9,-1 -9,-1z"/>
    <g>
     <path class="fil20" d="M498 77l-5 8c-2,1 -5,1 -7,-1 0,0 0,-1 0,-1l5 -9 7 3z"/>
     <path class="fil17" d="M504 79c-2,5 -8,6 -12,3 -4,-3 -5,-9 -3,-13 3,-4 9,-5 13,-2 4,3 5,8 2,12z"/>
     <path class="fil13" d="M504 77c1,0 1,0 1,0 1,0 1,0 1,0 1,-4 -1,-8 -4,-10 -4,-3 -10,-2 -13,2 0,1 0,1 0,1 0,1 0,1 1,1 1,0 4,0 4,-1 0,0 0,1 0,1 1,0 1,0 2,-1 1,3 5,6 8,7z"/>
     <path class="fil17" d="M492 72c0,1 -2,1 -3,0 -2,0 -2,-2 -1,-3 1,-2 2,-2 4,-1 1,1 1,2 0,4z"/>
    </g>
    <path class="fil17" d="M535 115c0,2 -1,4 -3,4 -2,0 -4,-2 -4,-4 0,-1 2,-3 4,-3 2,0 3,2 3,3z"/>
    <path class="fil11" d="M476 88c0,0 -17,19 -17,33 0,13 7,23 7,23l6 0c0,0 -6,-22 -3,-28 2,-5 14,-27 7,-28z"/>
    <path class="fil17" d="M472 147c-1,1 -4,1 -5,-1 -2,-1 -2,-4 0,-5 2,-2 4,-1 6,0 1,2 1,4 -1,6z"/>
   </g>
   <g>
    <path class="fil14" d="M307 173c0,0 1,2 2,4 0,1 -1,2 -1,2 0,0 -2,2 -3,2 -1,0 -3,3 -5,4 -3,1 -5,2 -6,1 -1,-2 8,-11 8,-11l5 -2z"/>
    <path class="fil14" d="M336 170c0,0 0,2 -2,2 -1,0 -3,-2 -3,-2l1 6c0,0 1,10 4,11 2,1 3,-4 3,-4l-3 -13z"/>
    <path class="fil11" d="M329 107l-1 18 11 11 9 -3c2,-1 4,-3 4,-5l0 -4c0,0 5,-5 3,-5 -1,-1 -22,-14 -22,-14l-4 2z"/>
    <g>
     <path class="fil11" d="M334 173c0,0 1,0 2,0 3,-2 4,-5 2,-8 -2,-3 -7,-13 -6,-20 0,-3 8,-9 16,-12 2,-1 4,-4 3,-7 -2,-3 -5,-4 -7,-3 -4,2 -22,9 -23,21 0,12 7,25 8,27 1,1 3,2 5,2z"/>
    </g>
    <g>
     <path class="fil11" d="M304 177c3,0 5,-2 5,-5 1,-6 3,-25 6,-32 2,-4 11,-9 17,-11 3,-1 5,-4 4,-6 -1,-3 -4,-5 -7,-4 -3,1 -19,7 -24,17 -4,10 -6,33 -6,35 0,3 2,6 5,6 0,0 0,0 0,0z"/>
    </g>
    <path class="fil21" d="M329 77l-3 2c0,0 -13,30 -13,33 1,2 3,4 5,3 2,0 9,-18 9,-18l2 -20z"/>
    <path class="fil4" d="M343 79c0,0 -11,-3 -15,-2 -4,1 -4,7 -4,8 0,2 2,35 2,35 0,0 16,12 23,8 6,-2 6,-6 6,-7 0,-1 0,-2 0,-3l-5 -32 -7 -7z"/>
    <path class="fil22" d="M322 72c2,5 8,8 13,6 5,-2 8,-7 6,-13 -1,-5 -7,-8 -12,-6 -6,2 -8,8 -7,13z"/>
    <path class="fil22" d="M330 71l3 11c2,1 5,2 7,0 1,0 1,-1 1,-1l-2 -10 -9 0z"/>
    <path class="fil21" d="M315 117c2,0 5,-2 5,-5 0,-3 -3,-5 -5,-5 -3,0 -5,2 -5,5 0,3 2,5 5,5z"/>
    <path class="fil22" d="M305 112c0,2 1,3 3,3 2,0 4,-1 4,-3 0,-2 -2,-4 -4,-4 -2,0 -3,2 -3,4z"/>
    <path class="fil21" d="M355 121c0,0 0,0 0,0 0,0 0,0 0,0 0,1 0,1 0,1 0,0 0,0 0,0 0,1 -1,3 -3,5 0,0 0,0 0,0 -2,1 -3,1 -5,2 -6,1 -15,-6 -20,-10 0,-1 1,-2 1,-2l19 -8 4 -22 0 -2 -1 1 5 32c0,1 0,2 0,3z"/>
    <path class="fil4" d="M350 100c0,0 -10,-20 -7,-21 0,0 8,2 10,6 2,4 12,29 11,32 0,3 -3,4 -12,6 -8,3 -14,3 -14,3l0 -3 15 -10 -3 -13z"/>
    <path class="fil7" d="M298 111l19 1c0,0 6,4 6,7 -1,3 -6,3 -6,3l-10 6 -9 -17z"/>
    <path class="fil6" d="M312 123c0,0 0,-2 -2,-4 -3,-4 -8,-8 -11,-8l18 1c0,0 8,3 6,7 -2,4 -6,3 -6,3l-5 1z"/>
    <path class="fil6" d="M307 128c0,0 4,-7 8,-8 5,0 8,-1 8,-1 0,0 9,-1 13,4l2 2 -31 3z"/>
    <g>
     <path class="fil15" d="M306 129l34 -4c1,0 1,0 1,0 0,-1 -1,-1 -1,-1l-33 4 -10 -18c0,-1 0,-1 -1,-1 0,1 0,1 0,1l10 19z"/>
    </g>
    <path class="fil22" d="M335 124c0,2 2,4 4,4 2,0 4,-2 4,-4 0,-2 -2,-3 -4,-3 -2,0 -4,1 -4,3z"/>
    <path class="fil7" d="M333 124c0,0 -19,-4 -21,-2 -3,2 -4,4 -4,4l-1 2 28 -3 -2 -1z"/>
    <path class="fil23" d="M333 71c0,0 0,-1 0,-2 0,-1 1,-1 2,-2 0,0 0,0 1,0 0,0 1,0 2,1 0,0 0,1 0,1 1,2 0,4 -2,5 1,0 1,1 2,1 1,0 1,0 2,0 1,2 0,4 0,5 0,2 0,3 -1,4 -1,4 -1,8 0,11 1,-2 3,-4 5,-5 2,-3 3,-5 2,-8 0,-3 -2,-6 -4,-7 2,-2 2,-6 2,-9 -1,-3 -3,-5 -5,-7 -2,-1 -4,-1 -6,-1 -2,0 -3,0 -4,0 -2,0 -4,2 -6,4 -2,2 -2,4 -1,7 0,-1 2,-1 3,-1 1,0 4,3 6,3 1,1 2,1 2,0z"/>
    <path class="fil14" d="M340 75c0,0 -1,0 -1,1 0,0 0,1 1,1 1,0 1,0 2,0 0,0 1,0 1,0 0,0 1,0 1,-1 0,0 1,0 0,-1 0,-2 -3,-1 -4,0z"/>
   </g>
   <g>
    <g>
     <path class="fil14" d="M703 291c-2,0 -4,-2 -5,-4 -4,-29 16,-79 17,-81 1,-2 4,-4 6,-3 3,1 4,4 3,7 0,0 -20,49 -16,76 0,2 -2,5 -4,5 -1,0 -1,0 -1,0z"/>
    </g>
    <path class="fil15" d="M737 293c2,0 3,-2 1,-4 0,0 -2,0 -3,0 -1,0 -1,-2 -3,-1 -1,0 -4,1 -5,1 -5,0 -5,3 -4,3 1,1 3,2 5,2 1,0 7,0 9,-1z"/>
    <path class="fil15" d="M704 293c2,0 3,-2 2,-4 0,0 -2,-1 -3,-1 -1,0 -1,-2 -3,-2 -1,0 -4,0 -5,0 -5,-1 -5,2 -5,2 1,1 2,3 4,3 2,1 8,2 10,2z"/>
    <path class="fil14" d="M716 224c0,0 6,3 11,3 5,1 8,-1 8,-1l1 -10 -19 -4 -1 12z"/>
    <g>
     <path class="fil14" d="M736 293c-2,0 -4,-2 -5,-4 0,-2 -4,-33 -4,-42 0,-9 2,-33 2,-34 0,-3 2,-5 5,-5 2,1 4,3 4,5 0,1 -1,26 -1,34 0,8 4,40 4,40 0,3 -2,5 -4,6 -1,0 -1,0 -1,0z"/>
    </g>
    <path class="fil11" d="M743 183c-3,-5 -18,-7 -21,-8 -4,0 -5,5 -5,11l-3 20c0,0 -3,7 1,9 5,2 24,5 25,2 1,-1 4,-32 3,-34z"/>
    <path class="fil22" d="M737 166c-1,5 -6,8 -11,7 -5,-1 -8,-5 -7,-11 1,-5 6,-8 11,-7 5,1 8,6 7,11z"/>
    <path class="fil22" d="M724 166l2 11c1,1 4,2 6,1l1 0 0 -11 -9 -1z"/>
    <path class="fil22" d="M738 166c0,2 -1,4 -2,4 -1,-1 -2,-2 -2,-4 1,-2 2,-4 3,-3 1,0 2,1 1,3z"/>
    <path class="fil23" d="M730 155c-4,-1 -8,1 -10,4 1,2 4,2 6,3 0,0 7,0 7,-1 0,1 0,3 1,4 0,-1 2,-2 3,-2 0,0 0,0 0,0 0,-4 -3,-7 -7,-8z"/>
    <path class="fil11" d="M736 211c0,0 0,0 2,1 3,1 2,3 2,3 0,0 24,-19 24,-21 -1,-1 -27,-16 -28,-15 0,2 1,10 1,10 0,0 14,7 12,8 -1,2 -13,14 -13,14z"/>
    <path class="fil22" d="M740 209c0,2 -1,4 -3,4 -2,0 -4,-2 -4,-4 0,-2 2,-3 4,-3 2,0 3,1 3,3z"/>
    <path class="fil11" d="M719 176c0,0 -10,7 -17,8 -6,1 -18,-7 -18,-7 0,0 -3,2 -2,3 0,1 10,12 19,12 8,1 20,-7 20,-7l-2 -9z"/>
    <path class="fil22" d="M687 180c-1,1 -3,3 -4,2 -2,0 -4,-2 -3,-4 0,-2 2,-3 4,-2 2,0 3,2 3,4z"/>
    <path class="fil4" d="M677 170l0 14c0,2 1,3 3,3l0 0c1,0 3,-1 3,-3l0 -14 -6 0z"/>
   </g>
   <g>
    <path class="fil4" d="M693 315c0,0 0,0 0,0 0,0 0,-1 0,-1 0,0 0,0 -1,0 0,0 0,0 0,-1 0,0 0,0 0,0 0,0 0,0 0,-1 0,0 0,0 0,0 0,0 0,0 0,-1 0,0 0,0 -1,0 0,0 0,0 0,0 0,-1 0,-1 0,-1 0,0 0,0 0,0 0,-1 0,-1 0,-1 0,0 0,0 0,0 0,0 0,-1 -1,-1 0,0 0,0 0,0 0,0 0,-1 0,-1 0,0 0,0 0,0 0,0 0,0 0,-1 0,0 0,0 0,0 0,0 0,0 -1,-1 0,0 0,0 0,0 0,0 0,0 0,-1 0,0 0,0 0,0 0,0 0,0 0,0 0,-1 0,-1 0,-1 0,0 0,0 -1,0 0,-1 0,-1 0,-1 0,0 0,0 0,0 0,0 0,-1 0,-1 0,0 0,0 0,0 0,0 0,-1 0,-1 0,0 0,0 0,0 -1,0 -1,-1 -1,-1 0,0 0,0 0,0 0,0 0,0 0,-1 0,0 0,0 0,0 0,0 0,0 0,-1 0,0 0,0 0,0 -1,0 -1,0 -1,0 0,-1 0,-1 0,-1 0,0 0,0 0,0 0,-1 0,-1 0,-1 0,0 0,0 0,0 0,-1 0,-1 0,-1 -1,0 -1,0 -1,0 0,0 0,-1 0,-1 0,0 0,0 0,0 0,0 0,-1 0,-1 0,0 0,0 0,0 0,0 0,0 0,-1 -1,0 -1,0 -1,0 0,0 0,0 0,-1 0,0 0,0 0,0 0,0 0,0 0,0 0,-1 0,-1 0,-1 0,0 0,0 0,0 -1,-1 -1,-1 -1,-1 0,0 0,0 0,0 0,-1 0,-1 0,-1 0,0 0,0 0,0 0,0 0,-1 0,-1 0,0 0,0 0,0 -1,0 -1,-1 -1,-1 0,0 0,0 0,0 0,0 0,0 0,-1 0,0 0,0 0,0 0,0 0,0 0,-1 0,0 0,0 0,0 -1,0 -1,0 -1,-1 0,0 0,0 0,0 0,0 0,0 0,0 0,-1 0,-1 0,-1 0,0 0,0 0,0 0,-1 0,-1 0,-1 -1,0 -1,0 -1,0 0,0 0,-1 0,-1 0,0 0,0 0,0 0,0 0,-1 0,-1 0,0 0,0 0,0 0,0 0,0 0,-1 -1,0 -1,0 -1,0 0,0 0,0 0,-1 0,0 0,0 0,0 0,0 0,0 0,-1 0,0 0,0 0,0 0,0 0,0 0,0 0,-1 -1,-1 -1,-1 0,0 0,0 0,0 0,-1 0,-1 0,-1 0,0 0,0 0,0 0,0 0,-1 0,-1 0,0 0,0 0,0 0,0 -1,-1 -1,-1 0,0 0,0 0,0 0,0 0,0 0,-1 0,0 0,0 0,0 0,0 0,0 0,-1 0,0 0,0 0,0 0,0 -1,0 -1,-1 0,0 0,0 0,0 0,0 0,0 0,0 0,-1 0,-1 0,-1 0,0 0,0 0,0 0,-1 0,-1 0,-1 0,0 -1,0 -1,0 0,0 0,-1 0,-1 0,0 0,0 0,0 0,0 0,-1 0,-1 0,0 0,0 0,0 0,0 0,-1 0,-1 0,0 -1,0 -1,0 0,0 0,0 0,-1 0,0 0,0 0,0 0,0 0,0 0,-1 0,0 0,0 0,0 0,0 0,0 0,0 0,-1 -1,-1 -1,-1 0,0 0,0 0,0 0,-1 0,-1 0,-1 0,0 0,0 0,0 0,0 0,-1 0,-1 0,0 0,0 0,0 0,0 -1,-1 -1,-1 0,0 0,0 0,0 0,0 0,-1 0,-1 0,0 0,0 0,0 0,0 0,0 0,-1 0,0 0,0 0,0 0,0 0,0 -1,-1 0,0 0,0 0,0 0,0 0,0 0,0 0,-1 0,-1 0,-1 0,0 0,0 0,0 0,-1 0,-1 0,-1 0,0 0,0 -1,0 0,0 0,-1 0,-1 0,0 0,0 0,0 0,0 0,-1 0,-1 0,0 0,0 0,0 0,0 0,-1 0,-1 0,0 0,0 -1,0 0,0 0,0 0,-1 0,0 0,0 0,0 0,0 0,0 0,-1 0,0 0,0 0,0 0,0 0,0 0,0 0,-1 0,-1 -1,-1 0,0 0,0 0,0 0,-1 0,-1 0,-1 0,0 0,0 0,0 0,0 0,-1 0,-1 0,0 0,0 0,0 0,0 0,-1 -1,-1 0,0 0,0 0,0 0,0 0,0 0,-1 0,0 0,0 0,0 0,0 0,0 0,-1 0,0 0,0 0,0 0,0 0,0 -1,-1 0,0 0,0 0,0 0,0 0,0 0,0 0,-1 0,-1 0,-1 0,0 0,0 0,0 0,-1 0,-1 0,-1 0,0 0,0 0,0 -1,0 -1,-1 -1,-1 0,0 0,0 0,0 0,0 0,-1 0,-1 0,0 0,0 0,0 0,0 0,0 0,-1 0,0 0,0 0,0 0,0 -1,0 -1,0 0,-1 0,-1 0,-1 0,0 0,0 0,0 0,-1 0,-1 0,-1 0,0 0,0 0,0 0,0 0,-1 0,-1 0,0 -1,0 -1,0 0,0 0,-1 0,-1 0,0 0,0 0,0 0,0 0,-1 0,-1 0,0 0,0 0,0 0,0 0,0 0,-1 0,0 -1,0 -1,0 0,0 0,0 0,-1 0,0 0,0 0,0 0,0 0,0 0,0 0,-1 0,-1 0,-1 0,0 0,0 0,0 0,-1 -1,-1 -1,-1 0,0 0,0 0,0 0,-1 0,-1 0,-1 0,0 0,0 0,0 0,0 0,-1 0,-1 0,0 0,0 0,0 0,0 -1,-1 -1,-1 0,0 0,0 0,0 0,0 0,0 0,-1 0,0 0,0 0,0 0,0 0,0 0,0 0,0 0,0 0,0 0,0 0,0 0,-1 0,0 0,0 0,0 0,0 0,0 0,0 0,0 0,0 0,0 0,-1 0,-1 0,-1 0,0 0,0 0,0 0,0 0,0 0,0 0,-1 0,-1 0,-1 0,0 0,0 0,0 0,0 0,0 0,0 0,0 0,-1 0,-1 0,0 0,0 0,0 0,0 0,0 0,0 0,0 0,0 0,-1 0,0 0,0 0,0 0,0 0,0 0,0 0,0 0,0 0,-1 0,0 0,0 0,0 0,0 0,0 0,0 0,0 0,0 0,0 0,-1 0,-1 0,-1 0,0 0,0 0,0 0,0 0,0 0,0 0,0 0,-1 0,-1 0,0 0,0 0,0 0,0 0,0 0,0 0,0 0,0 0,-1 0,0 0,0 0,0 0,0 0,0 0,0 0,0 0,0 0,-1 0,0 0,0 0,0 0,0 0,0 0,0 0,0 0,0 0,0 0,-1 0,-1 0,-1 0,0 0,0 0,0 0,0 0,0 0,0 0,0 0,-1 0,-1 0,0 0,0 0,0 0,0 0,0 0,0 0,0 0,0 0,-1 0,0 0,0 0,0 0,0 0,0 0,0 0,0 0,0 0,-1 0,0 0,0 0,0 0,0 0,0 0,0 0,0 0,0 0,0 0,-1 0,-1 0,-1 0,0 0,0 0,0 0,0 0,0 0,0 0,0 0,-1 0,-1 0,0 0,0 0,0 0,0 0,0 0,0 0,0 0,-1 0,-1 0,0 0,0 0,0 0,0 0,0 0,0 0,0 0,0 0,-1 0,0 0,0 0,0 0,0 0,0 0,0 0,0 0,0 0,0 0,-1 0,-1 0,-1 0,0 0,0 0,0 0,0 0,0 0,0 0,0 0,-1 0,-1 0,0 0,0 0,0 0,0 0,0 0,0 0,0 0,-1 0,-1 0,0 0,0 0,0 0,0 0,0 0,0 0,0 0,0 0,-1 0,0 0,0 0,0 0,0 0,0 0,0 0,0 0,0 0,0 0,-1 0,-1 0,-1 0,0 0,0 0,0 0,0 0,0 0,0 0,-1 0,-1 0,-1 0,0 0,0 0,0 0,0 0,0 0,0 0,0 0,-1 0,-1 0,0 0,0 0,0 0,0 0,0 0,0 0,0 0,0 0,-1 0,0 0,0 0,0 0,0 0,0 0,0 0,0 0,0 0,0 0,-1 0,-1 0,-1 0,0 0,0 0,0 0,0 0,0 0,0 0,-1 0,-1 0,-1 0,0 0,0 0,0 0,0 0,0 0,0 0,0 0,-1 0,-1 0,0 0,0 0,0 0,0 0,0 0,0 0,0 0,0 0,-1 0,0 0,0 0,0 0,0 0,0 0,0 0,0 0,12 0,12 0,0 0,0 0,0 0,0 0,0 0,0 0,0 0,-1 0,-1 0,0 0,0 0,0 0,0 0,0 0,0 0,0 0,0 0,-1 0,0 0,0 0,0 0,0 0,0 0,0 0,0 0,0 0,-1 0,0 0,0 0,0 0,0 0,0 0,0 0,0 0,0 0,0 0,-1 0,-1 0,-1 0,0 0,0 0,0 0,0 0,0 0,0 0,0 0,-1 0,-1 0,0 0,0 0,0 0,0 0,0 0,0 0,0 0,-1 0,-1 0,0 0,0 0,0 0,0 0,0 0,0 0,0 0,0 0,-1 0,0 0,0 0,0 0,0 0,0 0,0 0,0 0,0 0,0 0,-1 0,-1 0,-1 0,0 0,0 0,0 0,0 0,0 0,0 0,0 0,-1 0,-1 0,0 0,0 0,0 0,0 0,0 0,0 0,0 0,-1 0,-1 0,0 0,0 0,0 0,0 0,0 0,0 0,0 0,0 0,-1 0,0 0,0 0,0 0,0 0,0 0,0 0,0 0,0 0,0 0,-1 0,-1 0,-1 0,0 0,0 0,0 0,0 0,0 0,0 0,-1 0,-1 0,-1 0,0 0,0 0,0 0,0 0,0 0,0 0,0 0,-1 0,-1 0,0 0,0 0,0 0,0 0,0 0,0 0,0 0,0 0,-1 0,0 0,0 0,0 0,0 0,0 0,0 0,0 0,0 0,0 0,-1 0,-1 0,-1 0,0 0,0 0,0 0,0 0,0 0,0 0,-1 0,-1 0,-1 0,0 0,0 0,0 0,0 0,0 0,0 0,0 0,-1 0,-1 0,0 0,0 0,0 0,0 0,0 0,0 0,0 0,0 0,-1 0,0 0,0 0,0 0,0 0,0 0,0 0,0 0,0 0,0 0,-1 0,-1 0,-1 0,0 0,0 0,0 0,0 0,0 0,0 0,-1 0,-1 0,-1 0,0 0,0 0,0 0,0 0,0 0,0 0,0 0,-1 0,-1 0,0 0,0 0,0 0,0 0,0 0,0 0,0 0,0 0,-1 0,0 0,0 0,0 0,0 0,0 0,0 0,0 0,0 0,-1 0,0 0,0 0,0 0,0 0,0 0,0 0,0 0,0 0,0 0,-1 0,-1 0,-1 0,0 0,0 0,0 0,0 0,0 0,0 0,0 0,-1 0,-1 0,0 0,0 0,0 0,0 0,0 0,0 0,0 0,0 0,-1 0,0 0,0 0,0 0,0 0,0 0,0 0,0 0,0 0,-1 0,0 0,0 0,0 0,0 0,0 0,0 0,0 0,0 0,0 0,-1 0,-1 0,-1 0,0 0,0 0,0 0,0 0,0 0,0 0,0 0,-1 0,-1 0,0 0,0 0,0 0,-2 -2,-5 -6,-7 -8,-4 -22,-4 -30,0 -4,2 -6,5 -6,7 0,0 0,0 0,0 0,0 0,0 0,1 0,0 0,0 0,0 0,0 0,0 0,0 0,0 0,0 0,1 0,0 0,0 0,0 0,0 0,0 0,0 0,0 0,0 0,0 0,1 0,1 0,1 0,0 0,0 0,0 0,0 0,0 0,0 0,0 0,1 0,1 0,0 0,0 0,0 0,0 0,0 0,0 0,0 0,0 0,1 0,0 0,0 0,0 0,0 0,0 0,0 0,0 0,0 0,1 0,0 0,0 0,0 0,0 0,0 0,0 0,0 0,0 0,0 0,1 0,1 0,1 0,0 0,0 0,0 0,0 0,0 0,0 0,0 0,1 0,1 0,0 0,0 0,0 0,0 0,0 0,0 0,0 0,1 0,1 0,0 0,0 0,0 0,0 0,0 0,0 0,0 0,0 0,1 0,0 0,0 0,0 0,0 0,0 0,0 0,0 0,0 0,0 0,1 0,1 0,1 0,0 0,0 0,0 0,0 0,0 0,0 0,0 0,1 0,1 0,0 0,0 0,0 0,0 0,0 0,0 0,0 0,1 0,1 0,0 0,0 0,0 0,0 0,0 0,0 0,0 0,0 0,1 0,0 0,0 0,0 0,0 0,0 0,0 0,0 0,0 0,0 0,1 0,1 0,1 0,0 0,0 0,0 0,0 0,0 0,0 0,1 0,1 0,1 0,0 0,0 0,0 0,0 0,0 0,0 0,0 0,1 0,1 0,0 0,0 0,0 0,0 0,0 0,0 0,0 0,0 0,1 0,0 0,0 0,0 0,0 0,0 0,0 0,0 0,0 0,0 0,1 0,1 0,1 0,0 0,0 0,0 0,0 0,0 0,0 0,1 0,1 0,1 0,0 0,0 0,0 0,0 0,0 0,0 0,0 0,1 0,1 0,0 0,0 0,0 0,0 0,0 0,0 0,0 0,0 0,1 0,0 0,0 0,0 0,0 0,0 0,0 0,0 0,0 0,0 0,1 0,1 0,1 0,0 0,0 0,0 0,0 0,0 0,0 0,1 0,1 0,1 0,0 0,0 0,0 0,0 0,0 0,0 0,0 0,1 0,1 0,0 0,0 0,0 0,0 0,0 0,0 0,0 0,0 0,1 0,0 0,0 0,0 0,0 0,0 0,0 0,0 0,0 0,1 0,0 0,0 0,0 0,0 0,0 0,0 0,0 0,0 0,0 0,1 0,1 0,1 0,0 0,0 0,0 0,0 0,0 0,0 0,0 0,1 0,1 0,0 0,0 0,0 0,0 0,0 0,0 0,0 0,0 0,1 0,0 0,0 0,0 0,0 0,0 0,0 0,0 0,-12 0,-12 0,0 0,0 0,0 0,0 0,0 0,0 0,0 0,1 0,1 0,0 0,0 0,0 0,0 0,0 0,0 0,0 0,1 0,1 0,0 0,0 0,0 0,0 0,0 0,0 0,0 0,0 0,1 0,0 0,0 0,0 0,0 0,0 0,0 0,0 0,0 0,0 0,1 0,1 0,1 0,0 0,0 0,0 0,0 0,0 0,0 0,1 0,1 0,1 0,0 0,0 0,0 0,0 0,0 0,0 0,0 0,1 0,1 0,0 0,0 0,0 0,0 0,0 0,0 0,0 0,0 0,1 0,0 0,0 0,0 0,0 0,0 0,0 0,0 0,0 0,0 0,1 0,1 0,1 0,0 0,0 0,0 0,0 0,0 0,0 0,1 0,1 0,1 0,0 0,0 0,0 0,0 0,0 0,0 0,0 0,1 0,1 0,0 0,0 0,0 0,0 0,0 0,0 0,0 0,0 0,1 0,0 0,0 0,0 0,0 0,0 0,0 0,0 0,0 0,0 0,1 0,1 0,1 0,0 0,0 0,0 0,0 0,0 0,0 0,1 0,1 0,1 0,0 0,0 0,0 0,0 0,0 0,0 0,0 0,1 0,1 0,0 0,0 0,0 0,0 0,0 0,0 0,0 0,0 0,1 0,0 0,0 0,0 0,0 0,0 0,0 0,0 0,0 0,1 0,0 0,0 0,0 0,0 0,0 0,0 0,0 0,0 0,0 0,1 0,1 0,1 0,0 0,0 0,0 0,0 0,0 0,0 0,0 0,1 0,1 0,0 0,0 0,0 0,0 0,0 0,0 0,0 0,0 0,1 0,0 0,0 0,0 0,0 0,0 0,0 0,0 0,0 0,1 0,0 0,0 0,0 0,0 0,0 0,0 0,0 0,0 0,0 0,1 0,1 0,1 0,0 0,0 0,0 0,0 0,0 0,0 0,0 0,1 0,1 0,0 0,0 0,0 0,0 0,0 0,0 0,0 0,1 0,1 0,0 0,0 0,0 0,0 0,0 0,0 0,0 0,0 0,1 0,0 0,0 0,0 0,0 0,0 0,0 0,0 0,0 0,0 0,1 0,1 0,1 0,0 0,0 0,0 0,0 0,0 0,0 0,0 0,1 0,1 0,0 0,0 0,0 0,0 0,0 0,0 0,0 0,1 0,1 0,0 0,0 0,0 0,0 0,0 0,0 0,0 0,0 0,1 0,0 0,0 0,0 0,0 0,0 0,0 0,0 0,0 0,0 0,1 0,1 0,1 0,0 0,0 0,0 0,0 0,0 0,0 0,0 0,1 0,1 0,0 0,0 0,0 0,0 0,0 0,0 0,0 0,0 0,0 0,0 0,1 0,1 0,0 -1,0 -1,0 0,0 0,1 0,1 0,0 0,0 0,0 0,0 0,0 0,1 0,0 0,0 0,0 0,0 0,0 0,1 0,0 -1,0 -1,0 0,0 0,0 0,1 0,0 0,0 0,0 0,0 0,0 0,0 0,1 0,1 0,1 0,0 0,0 0,0 0,0 -1,1 -1,1 0,0 0,0 0,0 0,0 0,1 0,1 0,0 0,0 0,0 0,0 0,1 0,1 0,0 0,0 0,0 0,0 0,0 -1,1 0,0 0,0 0,0 0,0 0,0 0,1 0,0 0,0 0,0 0,0 0,0 0,0 0,1 0,1 0,1 0,0 0,0 -1,0 0,1 0,1 0,1 0,0 0,0 0,0 0,0 0,1 0,1 0,0 0,0 0,0 0,0 0,1 0,1 0,0 0,0 -1,0 0,0 0,0 0,1 0,0 0,0 0,0 0,0 0,0 0,1 0,0 0,0 0,0 0,0 0,0 0,0 0,1 0,1 -1,1 0,0 0,0 0,0 0,1 0,1 0,1 0,0 0,0 0,0 0,1 0,1 0,1 0,0 0,0 0,0 0,0 0,1 -1,1 0,0 0,0 0,0 0,0 0,1 0,1 0,0 0,0 0,0 0,0 0,0 0,1 0,0 0,0 0,0 0,0 0,0 0,1 -1,0 -1,0 -1,0 0,0 0,0 0,0 0,1 0,1 0,1 0,0 0,0 0,0 0,1 0,1 0,1 0,0 0,0 0,0 -1,1 -1,1 -1,1 0,0 0,0 0,0 0,0 0,1 0,1 0,0 0,0 0,0 0,0 0,1 0,1 0,0 0,0 0,0 -1,0 -1,0 -1,1 0,0 0,0 0,0 0,0 0,0 0,1 0,0 0,0 0,0 0,0 0,0 0,0 0,1 0,1 0,1 -1,0 -1,0 -1,0 0,1 0,1 0,1 0,0 0,0 0,0 0,0 0,1 0,1 0,0 0,0 0,0 0,0 0,1 0,1 -1,0 -1,0 -1,0 0,0 0,1 0,1 0,0 0,0 0,0 0,0 0,0 0,1 0,0 0,0 0,0 0,0 0,0 0,1 -1,0 -1,0 -1,0 0,0 0,0 0,0 0,1 0,1 0,1 0,0 0,0 0,0 0,1 0,1 0,1 0,0 0,0 0,0 -1,0 -1,1 -1,1 0,0 0,0 0,0 0,0 0,1 0,1 0,0 0,0 0,0 0,0 0,1 0,1 0,0 0,0 0,0 -1,0 -1,0 -1,1 0,0 0,0 0,0 0,0 0,0 0,1 0,0 0,0 0,0 0,0 0,0 0,0 0,1 0,1 0,1 0,0 -1,0 -1,0 0,1 0,1 0,1 0,0 0,0 0,0 0,1 0,1 0,1 0,0 0,0 0,0 0,0 0,1 0,1 0,0 -1,0 -1,0 0,0 0,1 0,1 0,0 0,0 0,0 0,0 0,0 0,1 0,0 0,0 0,0 0,0 0,0 0,1 0,0 -1,0 -1,0 0,0 0,0 0,0 0,1 0,1 0,1 0,0 0,0 0,0 0,1 0,1 0,1 0,0 0,0 0,0 0,1 -1,1 -1,1 0,0 0,0 0,0 0,0 0,1 0,1 0,0 0,0 0,0 0,0 0,1 0,1 0,0 0,0 0,0 0,0 -1,0 -1,1 0,0 0,0 0,0 0,0 0,0 0,1 0,0 0,0 0,0 0,0 0,0 0,0 0,1 0,1 0,1 0,0 -1,0 -1,0 0,1 0,1 0,1 0,0 0,0 0,0 0,1 0,1 0,1 0,0 0,0 0,0 0,0 0,1 0,1 0,0 -1,0 -1,0 0,0 0,1 0,1 0,0 0,0 0,0 0,0 0,0 0,1 0,0 0,0 0,0 0,0 0,0 0,1 0,0 -1,0 -1,0 0,0 0,0 0,1 0,0 0,0 0,0 0,0 0,0 0,0 0,1 0,1 0,1 0,0 0,0 0,0 0,1 -1,1 -1,1 0,0 0,0 0,0 0,0 0,1 0,1 0,0 0,0 0,0 0,0 0,1 0,1 0,0 0,0 0,0 0,0 -1,0 -1,1 0,0 0,0 0,0 0,0 0,0 0,1 0,0 0,0 0,0 0,0 0,0 0,1 0,0 0,0 0,0 0,0 -1,0 -1,0 0,1 0,1 0,1 0,0 0,0 0,0 0,1 0,1 0,1 0,0 0,0 0,0 0,0 0,1 0,1 0,0 -1,0 -1,0 0,0 0,1 0,1 0,0 0,0 0,0 0,0 0,1 0,1 0,0 0,0 0,0 0,0 0,0 0,1 0,0 -1,0 -1,0 0,0 0,0 0,1 0,0 0,0 0,0 0,0 0,0 0,0 0,1 0,1 0,1 0,0 0,0 0,0 0,1 0,1 -1,1 0,0 0,0 0,0 0,1 0,1 0,1 0,0 0,0 0,0 0,0 0,1 0,1 0,0 0,0 0,0 0,0 0,1 -1,1 0,0 0,0 0,0 0,0 0,0 0,1 0,0 0,0 0,0 0,0 0,0 0,1 0,0 0,0 0,0 0,0 0,0 -1,0 0,1 0,1 0,1 0,0 0,0 0,0 0,1 0,1 0,1 0,0 0,0 0,0 0,1 0,1 0,1 0,0 0,0 -1,0 0,0 0,1 0,1 0,0 0,0 0,0 0,0 0,1 0,1 0,0 0,0 0,0 -4,10 1,21 15,29 22,13 57,13 78,0 14,-8 19,-19 15,-29z"/>
    <path class="fil11" d="M685 314c0,0 0,0 -1,0 0,0 0,0 0,0 0,0 0,-1 0,-1 0,0 0,0 0,0 0,0 0,0 0,0 0,0 0,0 0,0 0,0 0,0 0,-1 0,0 0,0 0,0 0,0 0,0 0,0 0,0 0,0 0,0 0,0 0,0 0,0 0,0 0,-1 0,-1 0,0 0,0 0,0 0,0 0,0 0,0 0,0 -1,0 -1,0 0,0 0,0 0,-1 0,0 0,0 0,0 0,0 0,0 0,0 0,0 0,0 0,0 0,0 0,0 0,0 0,-1 0,-1 0,-1 0,0 0,0 0,0 0,0 0,0 0,0 0,0 0,0 0,0 0,0 0,0 0,-1 0,0 0,0 0,0 0,0 0,0 0,0 0,0 0,0 0,0 -1,0 -1,0 -1,0 0,-1 0,-1 0,-1 0,0 0,0 0,0 0,0 0,0 0,0 0,0 0,0 0,0 0,0 0,0 0,-1 0,0 0,0 0,0 0,0 0,0 0,0 0,0 0,0 0,0 0,0 0,0 0,0 0,-1 0,-1 0,-1 0,0 0,0 0,0 0,0 0,0 0,0 0,0 0,0 0,0 -1,0 -1,-1 -1,-1 0,0 0,0 0,0 0,0 0,0 0,0 0,0 0,0 0,0 0,0 0,0 0,0 0,-1 0,-1 0,-1 0,0 0,0 0,0 0,0 0,0 0,0 0,0 0,0 0,0 0,0 0,-1 0,-1 0,0 0,0 0,0 0,0 0,0 0,0 0,0 0,0 0,0 0,0 0,0 -1,-1 0,0 0,0 0,0 0,0 0,0 0,0 0,0 0,0 0,0 0,0 0,0 0,0 0,0 0,-1 0,-1 0,0 0,0 0,0 0,0 0,0 0,0 0,0 0,0 0,0 0,0 0,0 0,-1 0,0 0,0 0,0 0,0 0,0 0,0 0,0 0,0 0,0 0,0 0,0 0,0 0,0 0,-1 -1,-1 0,0 0,0 0,0 0,0 0,0 0,0 0,0 0,0 0,0 0,0 0,0 0,-1 0,0 0,0 0,0 0,0 0,0 0,0 0,0 0,0 0,0 0,0 0,0 0,0 0,-1 0,-1 0,-1 0,0 0,0 0,0 0,0 0,0 0,0 0,0 0,0 0,0 0,0 0,0 0,-1 0,0 -1,0 -1,0 0,0 0,0 0,0 0,0 0,0 0,0 0,0 0,0 0,0 0,0 0,0 0,0 0,0 0,0 0,0 0,0 0,0 0,0 0,0 0,0 0,-1 0,0 0,0 0,0 0,0 0,0 0,0 0,0 0,0 0,0 0,0 0,0 0,0 0,-1 0,-1 0,-1 0,0 0,0 0,0 0,0 0,0 0,0 0,0 0,0 0,0 0,0 0,-1 0,-1 0,0 -1,0 -1,0 0,0 0,0 0,0 0,0 0,0 0,0 0,0 0,0 0,-1 0,0 0,0 0,0 0,0 0,0 0,0 0,0 0,0 0,0 0,0 0,0 0,0 0,-1 0,-1 0,-1 0,0 0,0 0,0 0,0 0,0 0,0 0,0 0,0 0,0 0,0 0,0 0,-1 0,0 0,0 0,0 0,0 -1,0 -1,0 0,0 0,0 0,0 0,0 0,0 0,0 0,-1 0,-1 0,-1 0,0 0,0 0,0 0,0 0,0 0,0 0,0 0,0 0,0 0,0 0,-1 0,-1 0,0 0,0 0,0 0,0 0,0 0,0 0,0 0,0 0,0 0,0 0,0 0,-1 0,0 0,0 0,0 0,0 0,0 -1,0 0,0 0,0 0,0 0,0 0,0 0,0 0,0 0,-1 0,-1 0,0 0,0 0,0 0,0 0,0 0,0 0,0 0,0 0,0 0,0 0,0 0,-1 0,0 0,0 0,0 0,0 0,0 0,0 0,0 0,0 0,0 0,0 0,0 0,0 0,-1 0,-1 0,-1 0,0 0,0 0,0 0,0 -1,0 -1,0 0,0 0,0 0,0 0,0 0,-1 0,-1 0,0 0,0 0,0 0,0 0,0 0,0 0,0 0,0 0,0 0,0 0,0 0,-1 0,0 0,0 0,0 0,0 0,0 0,0 0,0 0,0 0,0 0,0 0,0 0,0 0,0 0,-1 0,-1 0,0 0,0 0,0 0,0 0,0 0,0 -1,0 -1,0 -1,0 0,0 0,0 0,-1 0,0 0,0 0,0 0,0 0,0 0,0 0,0 0,0 0,0 0,0 0,0 0,0 0,-1 0,-1 0,-1 0,0 0,0 0,0 0,0 0,0 0,0 0,0 0,0 0,0 0,0 0,-1 0,-1 0,0 0,0 0,0 0,0 0,0 0,0 0,0 0,0 -1,0 0,0 0,0 0,0 0,-1 0,-1 0,-1 0,0 0,0 0,0 0,0 0,0 0,0 0,0 0,0 0,0 0,0 0,-1 0,-1 0,0 0,0 0,0 0,0 0,0 0,0 0,0 0,0 0,0 0,0 0,0 0,-1 0,0 0,0 0,0 0,0 0,0 0,0 0,0 0,0 0,0 0,0 0,0 -1,0 0,-1 0,-1 0,-1 0,0 0,0 0,0 0,0 0,0 0,0 0,0 0,0 0,0 0,0 0,0 0,-1 0,0 0,0 0,0 0,0 0,0 0,0 0,0 0,0 0,0 0,0 0,0 0,0 0,-1 0,-1 0,-1 0,0 0,0 0,0 0,0 0,0 0,0 0,0 0,0 0,0 0,0 -1,-1 -1,-1 0,0 0,0 0,0 0,0 0,0 0,0 0,0 0,0 0,0 -1,-3 -4,-6 -9,-8 -12,-6 -32,-6 -45,0 -5,2 -8,5 -8,8 0,0 0,0 -1,0 0,0 0,0 0,0 0,0 0,0 0,0 0,0 0,1 0,1 0,0 0,0 0,0 0,0 0,0 0,0 0,0 0,0 0,0 0,0 0,0 0,0 0,1 0,1 0,1 0,0 0,0 0,0 0,0 0,0 0,0 0,0 0,0 0,0 0,0 0,1 0,1 0,0 0,0 0,0 0,0 -1,0 -1,0 0,0 0,0 0,0 0,0 0,0 0,1 0,0 0,0 0,0 0,0 0,0 0,0 0,0 0,0 0,0 0,0 0,0 0,0 0,1 0,1 0,1 0,0 0,0 0,0 0,0 0,0 0,0 0,0 0,0 0,0 0,0 0,0 0,1 0,0 0,0 0,0 0,0 0,0 0,0 -1,0 -1,0 -1,0 0,0 0,0 0,0 0,1 0,1 0,1 0,0 0,0 0,0 0,0 0,0 0,0 0,0 0,0 0,0 0,0 0,1 0,1 0,0 0,0 0,0 0,0 0,0 0,0 0,0 0,0 0,0 0,0 0,0 0,1 0,0 0,0 0,0 0,0 0,0 0,0 0,0 0,0 -1,0 0,0 0,0 0,0 0,1 0,1 0,1 0,0 0,0 0,0 0,0 0,0 0,0 0,0 0,0 0,0 0,0 0,0 0,1 0,0 0,0 0,0 0,0 0,0 0,0 0,0 0,0 0,0 0,0 0,0 0,0 0,1 0,1 0,1 0,0 0,0 0,0 0,0 0,0 0,0 0,0 -1,0 -1,0 0,0 0,1 0,1 0,0 0,0 0,0 0,0 0,0 0,0 0,0 0,0 0,0 0,0 0,0 0,1 0,0 0,0 0,0 0,0 0,0 0,0 0,0 0,0 0,0 0,0 0,0 0,0 0,0 0,1 0,1 0,0 0,0 0,0 0,0 0,0 0,0 0,0 0,0 0,0 -1,0 -1,0 -1,1 0,0 0,0 0,0 0,0 0,0 0,0 0,0 0,0 0,0 0,0 0,0 0,0 0,1 0,1 0,1 0,0 0,0 0,0 0,0 0,0 0,0 0,0 0,0 0,0 0,0 0,0 0,0 0,0 0,1 0,1 0,0 0,0 0,0l0 0c0,0 0,0 0,0 0,0 0,0 0,0 0,0 0,0 0,0 0,0 0,0 0,0 -1,1 -1,1 -1,1 0,0 0,0 0,0 0,0 0,0 0,0 0,0 0,0 0,0 0,0 0,1 0,1 0,0 0,0 0,0 0,0 0,0 0,0 0,0 0,0 0,0 0,0 0,0 0,0 0,1 0,1 0,1 0,0 0,0 0,0 0,0 0,0 0,0 0,0 0,0 0,0 0,0 0,1 -1,1 0,0 0,0 0,0 0,0 0,0 0,0 0,0 0,0 0,0 0,0 0,0 0,1 0,0 0,0 0,0 0,0 0,0 0,0 0,0 0,0 0,0 0,0 0,0 0,0 0,0 0,1 0,1 0,0 0,0 0,0 0,0 0,0 0,0 0,0 0,0 0,0 0,0 0,0 0,1 0,0 -1,0 -1,0 0,0 0,0 0,0 0,0 0,0 0,0 0,0 0,0 0,0 0,0 0,1 0,1 0,0 0,0 0,0 0,0 0,0 0,0 0,0 0,0 0,0 0,0 0,0 0,1 0,0 0,0 0,0 0,0 0,0 0,0 0,0 0,0 0,0 0,0 0,0 0,0 0,1 0,1 0,1 -1,0 -1,0 -1,0 0,0 0,0 0,0 0,0 0,0 0,0 0,0 0,0 0,1 0,0 0,0 0,0 0,0 0,0 0,0 0,0 0,0 0,0 0,0 0,0 0,0 0,1 0,1 0,1 0,0 0,0 0,0 0,0 0,0 0,0 0,0 0,0 0,0 0,0 0,0 0,1 0,0 0,0 0,0 -1,0 -1,0 -1,0 0,0 0,0 0,0 0,0 0,0 0,0 0,1 0,1 0,1 0,0 0,0 0,0 0,0 0,0 0,0 0,0 0,0 0,0 0,0 0,1 0,1 0,0 0,0 0,0 0,0 0,0 0,0 0,0 0,0 0,0 0,0 0,0 0,0 0,1 0,1 0,1 0,0 0,0 -1,0 0,0 0,0 0,0 0,0 0,0 0,0 0,0 0,1 0,1 0,0 0,0 0,0 0,0 0,0 0,0 0,0 0,0 0,0 0,0 0,0 0,1 0,0 0,0 0,0 0,0 0,0 0,0 0,0 0,0 0,0 0,0 0,0 0,0 0,0 0,1 0,1 0,0 0,0 0,0 0,0 -1,0 -1,0 0,0 0,0 0,0 0,0 0,0 0,1 0,0 0,0 0,0 0,0 0,0 0,0 0,0 0,0 0,0 0,0 0,0 0,0 0,0 0,1 0,1 0,0 0,0 0,0 0,0 0,0 0,0 0,0 0,0 0,0 0,0 0,0 0,1 0,0 0,0 0,0 0,0 0,0 0,0 0,0 -1,0 -1,0 0,0 0,0 0,0 0,1 0,1 0,1 0,0 0,0 0,0 0,0 0,0 0,0 0,0 0,0 0,0 0,0 0,0 0,1 0,0 0,0 0,0 0,0 0,0 0,0 0,0 0,0 0,0 0,0 0,0 0,0 0,1 0,1 0,1 0,0 0,0 0,0 0,0 0,0 0,0 -1,0 -1,0 -1,0 0,0 0,0 0,1 0,0 0,0 0,0 0,0 0,0 0,0 -3,9 2,18 13,24 18,11 48,11 66,0 11,-6 15,-15 13,-24z"/>
    <g>
     <path class="fil10" d="M661 262c13,5 13,14 0,20 -12,5 -32,5 -44,0 -13,-6 -13,-15 -1,-20 13,-6 33,-6 45,0z"/>
    </g>
    <g>
     <path class="fil24" d="M654 167c8,4 8,10 0,14 -8,3 -22,3 -30,0 -8,-4 -8,-10 0,-14 8,-4 22,-4 30,0z"/>
    </g>
    <path class="fil11" d="M652 155c0,2 -2,4 -4,4 -2,0 -4,-2 -4,-4 0,-2 2,-3 4,-3 2,0 4,1 4,3z"/>
    <path class="fil11" d="M641 143c0,2 -1,3 -3,3 -1,0 -2,-1 -2,-3 0,-1 1,-2 2,-2 2,0 3,1 3,2z"/>
    <path class="fil11" d="M647 136c0,1 -1,2 -3,2 -1,0 -2,-1 -2,-2 0,-2 1,-3 2,-3 2,0 3,1 3,3z"/>
    <path class="fil25" style="mask:url(#id0)" d="M687 337c1,0 1,-1 2,-1 0,0 0,-1 0,-1 0,0 1,-1 1,-1 0,0 0,0 0,0 1,-1 1,-1 1,-2 0,0 0,0 0,0 1,-1 1,-1 1,-2 0,0 0,0 0,0 1,-1 1,-1 1,-2 0,0 0,0 0,0 0,0 0,-1 1,-1 0,-1 0,-1 0,-1 0,0 0,-1 0,-1 0,-1 0,-1 0,-1 0,0 0,-1 0,-1 0,0 0,-1 0,-1 0,0 0,-1 0,-1 0,0 0,-1 0,-1 0,0 0,-1 0,-1 0,0 0,-1 0,-1 0,0 0,-1 0,-1 -1,-1 -1,-1 -1,-2 0,0 0,0 0,0 0,0 0,-1 0,-1 0,0 0,0 -1,0 0,0 0,0 0,-1 0,0 0,0 0,0 0,0 0,0 0,-1 0,0 0,0 0,0 0,0 0,0 0,-1 0,0 0,0 -1,0 0,0 0,0 0,0 0,-1 0,-1 0,-1 0,0 0,0 0,0 0,-1 0,-1 0,-1 0,0 0,0 0,0 0,0 0,-1 -1,-1 0,0 0,0 0,0 0,0 0,-1 0,-1 0,0 0,0 0,0 0,0 0,0 0,-1 0,0 0,0 0,0 0,0 0,0 -1,-1 0,0 0,0 0,0 0,0 0,0 0,-1 0,0 0,0 0,0 0,0 0,0 0,0 0,-1 0,-1 0,-1 0,0 0,0 -1,0 0,-1 0,-1 0,-1 0,0 0,0 0,0 0,0 0,-1 0,-1 0,0 0,0 0,0 0,0 0,-1 0,-1 0,0 0,0 0,0 -1,0 -1,-1 -1,-1 0,0 0,0 0,0 0,0 0,0 0,-1 0,0 0,0 0,0 0,0 0,0 0,-1 0,0 0,0 0,0 -1,0 -1,0 -1,0 0,-1 0,-1 0,-1 0,0 0,0 0,0 0,-1 0,-1 0,-1 0,0 0,0 0,0 0,-1 0,-1 0,-1 -1,0 -1,0 -1,0 0,0 0,-1 0,-1 0,0 0,0 0,0 0,0 0,-1 0,-1 0,0 0,0 0,0 0,0 0,0 0,-1 -1,0 -1,0 -1,0 0,0 0,0 0,-1 0,0 0,0 0,0 0,0 0,0 0,0 0,-1 0,-1 0,-1 0,0 0,0 0,0 -1,-1 -1,-1 -1,-1 0,0 0,0 0,0 0,-1 0,-1 0,-1 0,0 0,0 0,0 0,0 0,-1 0,-1 0,0 0,0 0,0 -1,0 -1,-1 -1,-1 0,0 0,0 0,0 0,0 0,0 0,-1 0,0 0,0 0,0 0,0 0,0 0,-1 0,0 0,0 0,0 -1,0 -1,0 -1,-1 0,0 0,0 0,0 0,0 0,0 0,0 0,-1 0,-1 0,-1 0,0 0,0 0,0 0,-1 0,-1 0,-1 -1,0 -1,0 -1,0 0,0 0,-1 0,-1 0,0 0,0 0,0 0,0 0,-1 0,-1 0,0 0,0 0,0 0,0 0,0 0,-1 -1,0 -1,0 -1,0 0,0 0,0 0,-1 0,0 0,0 0,0 0,0 0,0 0,-1 0,0 0,0 0,0 0,0 0,0 0,0 0,-1 -1,-1 -1,-1 0,0 0,0 0,0 0,-1 0,-1 0,-1 0,0 0,0 0,0 0,0 0,-1 0,-1 0,0 0,0 0,0 0,0 -1,-1 -1,-1 0,0 0,0 0,0 0,0 0,0 0,-1 0,0 0,0 0,0 0,0 0,0 0,-1 0,0 0,0 0,0 0,0 -1,0 -1,-1 0,0 0,0 0,0 0,0 0,0 0,0 0,-1 0,-1 0,-1 0,0 0,0 0,0 0,-1 0,-1 0,-1 0,0 -1,0 -1,0 0,0 0,-1 0,-1 0,0 0,0 0,0 0,0 0,-1 0,-1 0,0 0,0 0,0 0,0 0,-1 0,-1 0,0 -1,0 -1,0 0,0 0,0 0,-1 0,0 0,0 0,0 0,0 0,0 0,-1 0,0 0,0 0,0 0,0 0,0 0,0 0,-1 -1,-1 -1,-1 0,0 0,0 0,0 0,-1 0,-1 0,-1 0,0 0,0 0,0 0,0 0,-1 0,-1 0,0 0,0 0,0 0,0 -1,-1 -1,-1 0,0 0,0 0,0 0,0 0,-1 0,-1 0,0 0,0 0,0 0,0 0,0 0,-1 0,0 0,0 0,0 0,0 0,0 -1,-1 0,0 0,0 0,0 0,0 0,0 0,0 0,-1 0,-1 0,-1 0,0 0,0 0,0 0,-1 0,-1 0,-1 0,0 0,0 -1,0 0,0 0,-1 0,-1 0,0 0,0 0,0 0,0 0,-1 0,-1 0,0 0,0 0,0 0,0 0,-1 0,-1 0,0 0,0 -1,0 0,0 0,0 0,-1 0,0 0,0 0,0 0,0 0,0 0,-1 0,0 0,0 0,0 0,0 0,0 0,0 0,-1 0,-1 -1,-1 0,0 0,0 0,0 0,-1 0,-1 0,-1 0,0 0,0 0,0 0,0 0,-1 0,-1 0,0 0,0 0,0 0,0 0,-1 -1,-1 0,0 0,0 0,0 0,0 0,0 0,-1 0,0 0,0 0,0 0,0 0,0 0,-1 0,0 0,0 0,0 0,0 0,0 -1,-1 0,0 0,0 0,0 0,0 0,0 0,0 0,-1 0,-1 0,-1 0,0 0,0 0,0 0,-1 0,-1 0,-1 0,0 0,0 0,0 -1,0 -1,-1 -1,-1 0,0 0,0 0,0 0,0 0,-1 0,-1 0,0 0,0 0,0 0,0 0,0 0,-1 0,0 0,0 0,0 0,0 -1,0 -1,0 0,-1 0,-1 0,-1 0,0 0,0 0,0 0,-1 0,-1 0,-1 0,0 0,0 0,0 0,0 0,-1 0,-1 0,0 -1,0 -1,0 0,0 0,-1 0,-1 0,0 0,0 0,0 0,0 0,-1 0,-1 0,0 0,0 0,0 0,0 0,0 0,-1 0,0 -1,0 -1,0 0,0 0,0 0,-1 0,0 0,0 0,0 0,0 0,0 0,0 0,-1 0,-1 0,-1 0,0 0,0 0,0 0,-1 -1,-1 -1,-1 0,0 0,0 0,0 0,-1 0,-1 0,-1 0,0 0,0 0,0 0,0 0,-1 0,-1 0,0 0,0 0,0 0,0 -1,-1 -1,-1 0,0 0,0 0,0 0,0 0,0 0,-1 0,0 0,0 0,0 0,0 0,0 0,0 0,0 0,0 0,0 0,0 0,0 0,-1 0,0 0,0 0,0 0,0 0,0 0,0 0,0 0,0 0,0 0,-1 0,-1 0,-1 0,0 0,0 0,0 0,0 0,0 0,0 0,-1 0,-1 0,-1 0,0 0,0 0,0 0,0 0,0 0,0 0,0 0,-1 0,-1 0,0 0,0 0,0 0,0 0,0 0,0 0,0 0,0 0,-1 0,0 0,0 0,0 0,0 0,0 0,0 0,0 0,0 0,-1 0,0 0,0 0,0 0,0 0,0 0,0 0,0 0,0 0,0 0,-1 0,-1 0,-1 0,0 0,0 0,0 0,0 0,0 0,0 0,0 0,-1 0,-1 0,0 0,0 0,0 0,0 0,0 0,0 0,0 0,0 0,-1 0,0 0,0 0,0 0,0 0,0 0,0 0,0 0,0 0,-1 0,0 0,0 0,0 0,0 0,0 0,0 0,0 0,0 0,0 0,-1 0,-1 0,-1 0,0 0,0 0,0 0,0 0,0 0,0 0,0 0,-1 0,-1 0,0 0,0 0,0 0,0 0,0 0,0 0,0 0,0 0,-1 0,0 0,0 0,0 0,0 0,0 0,0 0,0 0,0 0,-1 0,0 0,0 0,0 0,0 0,0 0,0 0,0 0,0 0,0 0,-1 0,-1 0,-1 0,0 0,0 0,0 0,0 0,0 0,0 0,0 0,-1 0,-1 0,0 0,0 0,0 0,0 0,0 0,0 0,0 0,-1 0,-1 0,0 0,0 0,0 0,0 0,0 0,0 0,0 0,0 0,-1 0,0 0,0 0,0 0,0 0,-12 0,-12 0,0 0,0 0,0 0,-1 0,-1 0,-1 0,0 0,0 0,0 0,0 0,0 0,0 0,0 0,-1 0,-1 0,0 0,0 0,0 0,0 0,0 0,0 0,0 0,0 0,-1 0,0 0,0 0,0 0,0 0,0 0,0 0,0 0,0 0,0 0,-1 0,-1 0,-1 0,0 0,0 0,0 0,0 0,0 0,0 0,-1 0,-1 0,-1 0,0 0,0 0,0 0,0 0,0 0,0 0,0 0,-1 0,-1 0,0 0,0 0,0 0,0 0,0 0,0 0,0 0,0 0,-1 0,0 0,0 0,0 0,0 0,0 0,0 0,0 0,0 0,0 0,-1 0,-1 0,-1 0,0 0,0 0,0 0,0 0,0 0,0 0,-1 0,-1 0,-1 0,0 0,0 0,0 0,0 0,0 0,0 0,0 0,-1 0,-1 0,0 0,0 0,0 0,0 0,0 0,0 0,0 0,0 0,-1 0,0 0,0 0,0 0,0 0,0 0,0 0,0 0,0 0,-1 0,0 0,0 0,0 0,0 0,0 0,0 0,0 0,0 0,0 0,-1 0,-1 0,-1 0,0 0,0 0,0 0,0 0,0 0,0 0,0 0,-1 0,-1 0,0 0,0 0,0 0,0 0,0 0,0 0,0 0,0 0,-1 0,0 0,0 0,0 0,0 0,0 0,0 0,0 0,0 0,-1 0,0 0,0 0,0 0,0 0,0 0,0 0,0 0,0 0,0 0,-1 0,-1 0,-1 0,0 0,0 0,0 0,0 0,0 0,0 0,0 0,-1 0,-1 0,0 0,0 0,0 0,-1 0,-3 -1,-4l-8 6 0 56 16 62c4,16 -8,33 -25,33 0,0 0,0 0,0 -31,2 -48,-13 -54,-21 0,0 0,0 0,0 0,0 0,1 0,1 0,0 0,0 0,0 0,0 0,1 -1,1 0,0 0,0 0,0 0,0 0,0 0,1 0,0 0,0 0,0 0,0 0,0 0,1 0,0 0,0 0,0 0,0 0,0 -1,0 0,1 0,1 0,1 0,0 0,0 0,0 0,1 0,1 0,1 0,0 0,0 0,0 0,1 0,1 0,1 0,0 0,0 -1,0 0,0 0,1 0,1 0,0 0,0 0,0 0,0 0,1 0,1 0,0 0,0 0,0 -4,10 1,21 15,29 22,13 57,13 78,0 1,0 1,0 1,0l0 0c3,-2 6,-5 8,-7 0,0 0,0 0,0z"/>
    <path class="fil26" d="M605 321l28 -87 0 -54 -15 -8c0,0 0,1 0,2 0,0 0,0 0,0 0,0 0,0 0,1 0,0 0,0 0,0 0,0 0,0 0,0 0,0 0,0 0,1 0,0 0,0 0,0 0,0 0,0 0,0 0,0 0,0 0,0 0,1 0,1 0,1 0,0 0,0 0,0 0,0 0,0 0,0 0,0 0,1 0,1 0,0 0,0 0,0 0,0 0,0 0,0 0,0 0,0 0,1 0,0 0,0 0,0 0,0 0,0 0,0 0,0 0,0 0,1 0,0 0,0 0,0 0,0 0,0 0,0 0,0 0,0 0,0 0,1 0,1 0,1 0,0 0,0 0,0 0,0 0,0 0,0 0,0 0,1 0,1 0,0 0,0 0,0 0,0 0,0 0,0 0,0 0,1 0,1 0,0 0,0 0,0 0,0 0,0 0,0 0,0 0,0 0,1 0,0 0,0 0,0 0,0 0,0 0,0 0,0 0,0 0,0 0,1 0,1 0,1 0,0 0,0 0,0 0,0 0,0 0,0 0,0 0,1 0,1 0,0 0,0 0,0 0,0 0,0 0,0 0,0 0,1 0,1 0,0 0,0 0,0 0,0 0,0 0,0 0,0 0,0 0,1 0,0 0,0 0,0 0,0 0,0 0,0 0,0 0,0 0,0 0,1 0,1 0,1 0,0 0,0 0,0 0,0 0,0 0,0 0,1 0,1 0,1 0,0 0,0 0,0 0,0 0,0 0,0 0,0 0,1 0,1 0,0 0,0 0,0 0,0 0,0 0,0 0,0 0,0 0,1 0,0 0,0 0,0 0,0 0,12 0,12 0,0 0,0 0,0 0,1 0,1 0,1 0,0 0,0 0,0 0,0 0,0 0,0 0,0 0,1 0,1 0,0 0,0 0,0 0,0 0,0 0,0 0,0 0,0 0,1 0,0 0,0 0,0 0,0 0,0 0,0 0,0 0,0 0,1 0,0 0,0 0,0 0,0 0,0 0,0 0,0 0,0 0,0 0,1 0,1 0,1 0,0 0,0 0,0 0,0 0,0 0,0 0,0 0,1 0,1 0,0 0,0 0,0 0,0 0,0 0,0 0,0 0,0 0,1 0,0 0,0 0,0 0,0 0,0 0,0 0,0 0,0 0,1 0,0 0,0 0,0 0,0 0,0 0,0 0,0 0,0 0,0 0,1 0,1 0,1 0,0 0,0 0,0 0,0 0,0 0,0 0,0 0,1 0,1 0,0 0,0 0,0 0,0 0,0 0,0 0,0 0,1 0,1 0,0 0,0 0,0 0,0 0,0 0,0 0,0 0,0 0,1 0,0 0,0 0,0 0,0 0,0 0,0 0,0 0,0 0,0 0,1 0,1 0,1 0,0 0,0 0,0 0,0 0,0 0,0 0,0 0,1 0,1 0,0 0,0 0,0 0,0 0,0 0,0 0,0 0,1 0,1 0,0 0,0 0,0 0,0 0,0 0,0 0,0 0,0 0,1 0,0 0,0 0,0 0,0 0,0 0,0 0,0 0,0 0,0 0,1 0,1 0,1 0,0 0,0 0,0 0,0 0,0 0,0 0,0 0,1 0,1 0,0 0,0 0,0 0,0 0,0 0,0 0,0 0,0 0,0 0,0 0,1 0,1 0,0 -1,0 -1,0 0,0 0,1 0,1 0,0 0,0 0,0 0,0 0,0 0,1 0,0 0,0 0,0 0,0 0,0 0,1 0,0 -1,0 -1,0 0,0 0,0 0,1 0,0 0,0 0,0 0,0 0,0 0,0 0,1 0,1 0,1 0,0 0,0 0,0 0,0 -1,1 -1,1 0,0 0,0 0,0 0,0 0,1 0,1 0,0 0,0 0,0 0,0 0,1 0,1 0,0 0,0 0,0 0,0 0,0 -1,1 0,0 0,0 0,0 0,0 0,0 0,1 0,0 0,0 0,0 0,0 0,0 0,0 0,1 0,1 0,1 0,0 0,0 -1,0 0,1 0,1 0,1 0,0 0,0 0,0 0,0 0,1 0,1 0,0 0,0 0,0 0,0 0,1 0,1 0,0 0,0 -1,0 0,0 0,0 0,1 0,0 0,0 0,0 0,0 0,0 0,1 0,0 0,0 0,0 0,0 0,0 0,0 0,1 0,1 -1,1 0,0 0,0 0,0 0,1 0,1 0,1 0,0 0,0 0,0 0,1 0,1 0,1 0,0 0,0 0,0 0,0 0,1 -1,1 0,0 0,0 0,0 0,0 0,1 0,1 0,0 0,0 0,0 0,0 0,0 0,1 0,0 0,0 0,0 0,0 0,0 0,1 -1,0 -1,0 -1,0 0,0 0,0 0,0 0,1 0,1 0,1 0,0 0,0 0,0 0,1 0,1 0,1 0,0 0,0 0,0 -1,1 -1,1 -1,1 0,0 0,0 0,0 0,0 0,1 0,1 0,0 0,0 0,0 0,0 0,1 0,1 0,0 0,0 0,0 -1,0 -1,0 -1,1 0,0 0,0 0,0 0,0 0,0 0,1 0,0 0,0 0,0 0,0 0,0 0,0 0,1 0,1 0,1 -1,0 -1,0 -1,0 0,1 0,1 0,1 0,0 0,0 0,0 0,0 0,1 0,1 0,0 0,0 0,0 0,0 0,1 0,1 -1,0 -1,0 -1,0 0,0 0,1 0,1 0,0 0,0 0,0 0,0 0,0 0,1 0,0 0,0 0,0 0,0 0,0 0,1 -1,0 -1,0 -1,0 0,0 0,0 0,0 0,1 0,1 0,1 0,0 0,0 0,0 0,1 0,1 0,1 0,0 0,0 0,0 -1,0 -1,1 -1,1 0,0 0,0 0,0 0,0 0,1 0,1 0,0 0,0 0,0 0,0 0,1 0,1 0,0 0,0 0,0 -1,0 -1,0 -1,1 0,0 0,0 0,0 0,0 0,0 0,1 0,0 0,0 0,0 0,0 0,0 0,0 0,1 0,1 0,1 0,0 -1,0 -1,0 0,1 0,1 0,1 0,0 0,0 0,0 0,1 0,1 0,1 0,0 0,0 0,0 0,0 0,1 0,1 0,0 -1,0 -1,0 0,0 0,1 0,1 0,0 0,0 0,0 0,0 0,0 0,1 0,0 0,0 0,0 0,0 0,0 0,1 0,0 -1,0 -1,0 0,0 0,0 0,0 0,1 0,1 0,1 0,0 0,0 0,0 0,1 0,1 0,1 0,0 0,0 0,0 0,1 -1,1 -1,1 0,0 0,0 0,0 0,0 0,1 0,1 0,0 0,0 0,0 0,0 0,1 0,1 0,0 0,0 0,0 0,0 -1,0 -1,1 0,0 0,0 0,0 0,0 0,0 0,1 0,0 0,0 0,0 0,0 0,0 0,0 0,1 0,1 0,1 0,0 -1,0 -1,0 0,1 0,1 0,1 0,0 0,0 0,0 0,1 0,1 0,1 0,0 0,0 0,0 0,0 0,1 0,1 0,0 -1,0 -1,0 0,0 0,1 0,1 0,0 0,0 0,0 0,0 0,0 0,1 0,0 0,0 0,0 0,0 0,0 0,1 0,0 -1,0 -1,0 0,0 0,0 0,1 0,0 0,0 0,0 0,0 0,0 0,0 0,1 0,1 0,1 0,0 0,0 0,0 0,1 -1,1 -1,1 0,0 0,0 0,0 0,0 0,1 0,1 0,0 0,0 0,0 0,0 0,1 0,1 0,0 0,0 0,0 0,0 -1,0 -1,1 0,0 0,0 0,0 0,0 0,0 0,1 0,0 0,0 0,0 0,0 0,0 0,1 0,0 0,0 0,0 0,0 -1,0 -1,0 0,1 0,1 0,1 0,0 0,0 0,0 0,1 0,1 0,1 0,0 0,0 0,0 0,0 0,1 0,1 0,0 -1,0 -1,0 0,0 0,1 0,1 0,0 0,0 0,0 0,0 0,1 0,1 0,0 0,0 0,0 0,0 0,0 0,1 0,0 -1,0 -1,0 0,0 0,0 0,1 0,0 0,0 0,0 0,0 0,0 0,0 0,1 0,1 0,1 0,0 0,0 0,0 0,1 0,1 -1,1 0,0 0,0 0,0 0,1 0,1 0,1 0,0 0,0 0,0 0,0 0,1 0,1 0,0 0,0 0,0 0,0 0,1 -1,1 4,4 10,9 18,13z"/>
    <g>
     <path class="fil5" d="M654 167c8,4 8,10 0,14 -8,3 -22,3 -30,0 -8,-4 -8,-10 0,-14 8,-4 22,-4 30,0z"/>
    </g>
    <g>
     <g>
      <path class="fil4" d="M639 187c-6,0 -11,-1 -15,-3 -8,-3 -9,-8 -9,-10 0,-3 1,-7 8,-10 9,-4 23,-4 31,0 7,3 8,7 8,10 0,2 -1,7 -8,10 -4,2 -9,3 -15,3zm-15 -13l0 0c0,0 1,1 3,2 7,3 17,3 24,0 2,-1 3,-2 3,-2 0,0 -1,-1 -3,-2l0 0c-7,-3 -18,-3 -24,0 -2,1 -3,1 -3,2z"/>
     </g>
    </g>
    <path class="fil11" d="M642 164c0,2 -1,4 -3,4 -2,0 -4,-2 -4,-4 0,-2 2,-4 4,-4 2,0 3,2 3,4z"/>
   </g>
   <g>
    <path class="fil4" d="M622 74l-68 -39c-1,-1 -2,-1 -3,0 0,0 0,0 0,0 0,0 0,0 0,0 0,0 0,0 0,0 0,0 -1,0 -1,0 0,0 0,0 0,0 0,0 0,0 0,0 0,0 0,0 0,0 0,0 -1,0 -1,0 0,0 0,0 0,0 0,0 0,0 0,0 0,0 0,1 0,1 0,0 -1,0 -1,0 0,0 0,0 0,0 0,0 0,0 0,0 0,0 0,0 0,0 0,0 -1,0 -1,0 0,0 0,0 0,0 0,0 0,0 0,0 0,0 0,0 0,0 0,0 0,0 -1,0 0,0 0,0 0,0 0,0 0,0 0,0 0,0 0,0 0,1 0,0 0,0 -1,0 0,0 0,0 0,0 0,0 0,0 0,0 0,0 0,0 0,0 0,0 0,0 -1,0 0,0 0,0 0,0 0,0 0,0 0,0 -2,1 -3,3 -3,6l0 62c0,5 2,10 5,12l10 6 0 19 0 -1 0 1 0 -1 0 1 1 -1 0 0 0 0 0 0 0 0 0 0 0 0 0 0 1 0 0 0 0 0 0 0 0 0 0 0 0 0 0 0 1 0 0 0 0 0 0 0 0 -1 0 1 0 -1 0 1 1 -1 0 0 0 0 0 0 0 0 0 0 0 0 0 0 1 0 0 0 0 0 0 0 0 0 0 0 0 0 0 0 1 0 0 0 0 0 0 0 0 -1 0 1 0 -1 0 1 1 -1 0 0 0 0 0 0 0 0 0 0 0 0 0 0 1 0 0 0 8 -7 45 23c0,1 1,1 2,1 0,0 0,0 0,0 0,0 0,0 0,0 5,-2 8,-2 8,-9l0 -62c0,-5 -2,-10 -5,-11z"/>
    <g>
     <path class="fil6" d="M617 76l-71 -39c-3,-1 -5,1 -5,6l0 62c0,5 2,10 5,12l10 6 0 19 13 -12 48 25c2,2 4,0 4,-5l0 -63c0,-4 -2,-9 -4,-11z"/>
     <g>
      <path class="fil14" d="M567 91c0,3 -1,4 -2,3 -2,-1 -3,-3 -3,-6 0,-2 1,-4 3,-3 1,1 2,4 2,6z"/>
      <path class="fil14" d="M582 100c0,3 -1,4 -2,3 -2,-1 -3,-3 -3,-6 0,-2 1,-4 3,-3 1,1 2,4 2,6z"/>
      <path class="fil14" d="M598 109c0,3 -1,4 -3,3 -1,-1 -2,-3 -2,-6 0,-2 1,-4 2,-3 2,1 3,4 3,6z"/>
     </g>
    </g>
   </g>
  </g>
  <g id="_2571791785200">
   <polyline class="fil27 str0" points="418,50 434,71 463,46 "/>
   <path class="fil28" d="M439 69c-1,-3 -4,-5 -8,-4 -3,1 -5,4 -4,8 1,3 4,5 8,4 3,-1 5,-5 4,-8z"/>
   <path class="fil28" d="M423 48c-1,-2 -3,-3 -6,-3 -2,1 -4,3 -3,6 1,2 3,4 6,3 2,-1 3,-3 3,-6z"/>
   <path class="fil28" d="M466 45c0,-1 -2,-2 -4,-2 -1,1 -2,2 -2,4 1,2 2,3 4,2 2,0 3,-2 2,-4z"/>
  </g>
 </g>
</svg>
